<svg width="26" height="28" viewBox="0 0 26 28" fill="none" xmlns="http://www.w3.org/2000/svg">
<path d="M24 11.5H1.5M17.75 1.5V6.5M7.75 1.5V6.5M10.875 16.5L12.75 15.25V21.5M11.1875 21.5H14.3125M7.5 26.5H18C20.1002 26.5 21.1503 26.5 21.9525 26.0913C22.6581 25.7318 23.2318 25.1581 23.5913 24.4525C24 23.6503 24 22.6002 24 20.5V10C24 7.8998 24 6.84971 23.5913 6.04754C23.2318 5.34193 22.6581 4.76825 21.9525 4.40873C21.1503 4 20.1002 4 18 4H7.5C5.3998 4 4.3497 4 3.54754 4.40873C2.84193 4.76825 2.26825 5.34193 1.90873 6.04754C1.5 6.84971 1.5 7.8998 1.5 10V20.5C1.5 22.6002 1.5 23.6503 1.90873 24.4525C2.26825 25.1581 2.84193 25.7318 3.54754 26.0913C4.3497 26.5 5.3998 26.5 7.5 26.5Z" stroke="#AF62FF" stroke-width="3" stroke-linecap="round" stroke-linejoin="round"/>
</svg>
