<svg width="167" height="20" viewBox="0 0 167 20" fill="none" xmlns="http://www.w3.org/2000/svg">
<path d="M0.000195324 14.9V0.900023H4.7202C6.13353 0.900023 7.2402 1.22002 8.0402 1.86002C8.85353 2.50002 9.2602 3.38002 9.2602 4.50002C9.2602 5.34002 9.02686 6.04669 8.5602 6.62002C8.09353 7.18002 7.41353 7.57336 6.5202 7.80002V7.88002C7.6002 8.05336 8.4202 8.44002 8.9802 9.04002C9.55353 9.62669 9.8402 10.38 9.8402 11.3C9.8402 12.0467 9.65353 12.6934 9.2802 13.24C8.9202 13.7734 8.4002 14.1867 7.7202 14.48C7.0402 14.76 6.23353 14.9 5.3002 14.9H0.000195324ZM5.3002 14.5C6.60686 14.5 7.6202 14.22 8.3402 13.66C9.07353 13.0867 9.4402 12.3 9.4402 11.3C9.4402 10.3 9.06686 9.52002 8.3202 8.96002C7.58686 8.38669 6.5802 8.10002 5.3002 8.10002H0.400196V14.5H5.3002ZM4.7202 7.70002C6.02686 7.70002 7.0402 7.42002 7.7602 6.86002C8.49353 6.28669 8.8602 5.50002 8.8602 4.50002C8.8602 3.50002 8.49353 2.72002 7.7602 2.16002C7.0402 1.58669 6.02686 1.30002 4.7202 1.30002H0.400196V7.70002H4.7202ZM17.3855 15.1C16.4388 15.1 15.5722 14.8734 14.7855 14.42C13.9988 13.9534 13.3788 13.3267 12.9255 12.54C12.4722 11.74 12.2455 10.86 12.2455 9.90002C12.2455 8.94002 12.4722 8.06669 12.9255 7.28002C13.3788 6.48002 13.9988 5.85336 14.7855 5.40002C15.5722 4.93336 16.4388 4.70002 17.3855 4.70002C18.3322 4.70002 19.1988 4.93336 19.9855 5.40002C20.7722 5.85336 21.3855 6.48002 21.8255 7.28002C22.2788 8.06669 22.5055 8.94002 22.5055 9.90002C22.5055 9.92669 22.5055 9.96002 22.5055 10C22.5055 10.04 22.5055 10.0734 22.5055 10.1H12.6455C12.6722 10.9667 12.8988 11.7534 13.3255 12.46C13.7522 13.1534 14.3188 13.7 15.0255 14.1C15.7322 14.5 16.5188 14.7 17.3855 14.7C18.4122 14.7 19.3122 14.46 20.0855 13.98C20.8722 13.4867 21.4055 12.84 21.6855 12.04H22.1055C21.9188 12.6534 21.5922 13.1934 21.1255 13.66C20.6722 14.1134 20.1188 14.4667 19.4655 14.72C18.8255 14.9734 18.1322 15.1 17.3855 15.1ZM22.1055 9.70002C22.0788 8.83336 21.8522 8.05336 21.4255 7.36002C21.0122 6.65336 20.4455 6.10002 19.7255 5.70002C19.0188 5.30002 18.2388 5.10002 17.3855 5.10002C16.5188 5.10002 15.7322 5.30002 15.0255 5.70002C14.3188 6.10002 13.7522 6.65336 13.3255 7.36002C12.8988 8.05336 12.6722 8.83336 12.6455 9.70002H22.1055ZM27.9088 15.14C26.8688 15.14 26.0755 14.9067 25.5288 14.44C24.9821 13.9734 24.7088 13.3467 24.7088 12.56C24.7088 11.8 24.9688 11.2067 25.4888 10.78C26.0221 10.34 26.6621 10.04 27.4088 9.88002C28.1555 9.70669 29.0088 9.58669 29.9688 9.52002C30.9021 9.46669 31.6088 9.37336 32.0888 9.24002C32.5821 9.10669 32.8288 8.87336 32.8288 8.54002C32.8288 7.52669 32.4888 6.70002 31.8088 6.06002C31.1421 5.42002 30.2755 5.10002 29.2088 5.10002C28.1688 5.10002 27.3088 5.39336 26.6288 5.98002C25.9621 6.56669 25.5355 7.38002 25.3488 8.42002H24.9488C25.0688 7.66002 25.3155 7.00002 25.6888 6.44002C26.0755 5.88002 26.5688 5.45336 27.1688 5.16002C27.7688 4.85336 28.4488 4.70002 29.2088 4.70002C30.0088 4.70002 30.7088 4.86669 31.3088 5.20002C31.9221 5.52002 32.3955 5.98002 32.7288 6.58002C33.0621 7.18002 33.2288 7.87336 33.2288 8.66002V14.5H34.8288V14.9H32.8488V12C32.5021 12.9467 31.8755 13.7067 30.9688 14.28C30.0621 14.8534 29.0421 15.14 27.9088 15.14ZM27.9088 14.74C28.8421 14.74 29.6821 14.54 30.4288 14.14C31.1755 13.74 31.7621 13.2 32.1888 12.52C32.6155 11.84 32.8288 11.0934 32.8288 10.28L32.8488 9.28002C32.6355 9.45336 32.3221 9.58669 31.9088 9.68002C31.4955 9.77336 30.9488 9.84002 30.2688 9.88002C30.2288 9.88002 30.1821 9.88669 30.1288 9.90002C30.0888 9.90002 30.0421 9.90002 29.9888 9.90002C28.2821 10.02 27.0421 10.2934 26.2688 10.72C25.4955 11.1334 25.1088 11.7467 25.1088 12.56C25.1088 13.2534 25.3555 13.7934 25.8488 14.18C26.3555 14.5534 27.0421 14.74 27.9088 14.74ZM41.7271 15.1C40.7937 15.1 39.9871 14.9067 39.3071 14.52C38.6404 14.12 38.1271 13.5467 37.7671 12.8C37.4204 12.04 37.2471 11.14 37.2471 10.1V4.90002H37.6471V10.1C37.6471 11.5267 38.0071 12.6534 38.7271 13.48C39.4604 14.2934 40.4604 14.7 41.7271 14.7C42.4871 14.7 43.1804 14.5 43.8071 14.1C44.4471 13.7 44.9471 13.1467 45.3071 12.44C45.6671 11.7334 45.8471 10.9534 45.8471 10.1V4.90002H46.2471V14.9H45.8471V12.08C45.5137 13 44.9804 13.7334 44.2471 14.28C43.5137 14.8267 42.6737 15.1 41.7271 15.1ZM54.9902 15.1C53.8569 15.1 53.0169 14.8334 52.4702 14.3C51.9235 13.7534 51.6502 12.9534 51.6502 11.9V5.30002H49.0502V4.90002H51.4502C51.5169 4.90002 51.5635 4.88002 51.5902 4.84002C51.6302 4.80002 51.6502 4.75336 51.6502 4.70002V2.50002H52.0902L52.0502 4.90002H57.0502V5.30002H52.0502V11.9C52.0502 12.86 52.2902 13.5667 52.7702 14.02C53.2502 14.4734 53.9769 14.7 54.9502 14.7C55.5635 14.7 56.2635 14.5734 57.0502 14.32V14.7C56.7569 14.8067 56.4102 14.9 56.0102 14.98C55.6102 15.06 55.2702 15.1 54.9902 15.1ZM61.1647 19.1C60.6047 19.1 60.1114 18.98 59.6847 18.74C59.2714 18.5 58.9447 18.16 58.7047 17.72C58.4781 17.2934 58.3647 16.7867 58.3647 16.2V15.66H58.7647V16.2C58.7647 16.7067 58.8647 17.1467 59.0647 17.52C59.2647 17.8934 59.5447 18.18 59.9047 18.38C60.2647 18.5934 60.6847 18.7 61.1647 18.7C61.8981 18.7 62.4781 18.4734 62.9047 18.02C63.3447 17.5667 63.5647 16.96 63.5647 16.2V15.84C63.5647 15.4934 63.5314 15.1867 63.4647 14.92C63.4114 14.6534 63.3047 14.38 63.1447 14.1L58.1447 4.90002H58.6047L63.5047 13.92C63.5581 14.0267 63.6047 14.1467 63.6447 14.28C63.6981 14.4 63.7314 14.5334 63.7447 14.68C63.7714 14.52 63.8047 14.38 63.8447 14.26C63.8847 14.14 63.9314 14.0134 63.9847 13.88L67.8247 4.90002H68.2647L64.3447 14.08C64.2114 14.3867 64.1114 14.6667 64.0447 14.92C63.9914 15.1867 63.9647 15.48 63.9647 15.8V16.2C63.9647 16.7867 63.8447 17.2934 63.6047 17.72C63.3781 18.16 63.0514 18.5 62.6247 18.74C62.2114 18.98 61.7247 19.1 61.1647 19.1ZM79.1297 15.2C78.1564 15.2 77.3031 15.02 76.5697 14.66C75.8364 14.3 75.2697 13.7934 74.8697 13.14C74.4697 12.4867 74.2697 11.7334 74.2697 10.88C74.2697 10.0667 74.4697 9.35336 74.8697 8.74002C75.2697 8.12669 75.8364 7.65336 76.5697 7.32002C77.3031 6.97336 78.1564 6.80002 79.1297 6.80002H79.2897L74.9297 1.46002V0.900023H84.2697V1.30002H75.3097L84.1297 12.12C84.9297 10.9334 85.4097 9.46002 85.5697 7.70002H85.9697C85.7831 9.60669 85.2564 11.18 84.3897 12.42L86.4097 14.9H85.8897L84.1497 12.76C83.5497 13.5467 82.8164 14.1534 81.9497 14.58C81.0964 14.9934 80.1564 15.2 79.1297 15.2ZM79.1297 14.8C80.1164 14.8 81.0097 14.6 81.8097 14.2C82.6231 13.8 83.3164 13.22 83.8897 12.46L79.6097 7.20002H79.1297C77.7697 7.20002 76.6831 7.53336 75.8697 8.20002C75.0697 8.86669 74.6697 9.76002 74.6697 10.88C74.6697 12.0667 75.0697 13.02 75.8697 13.74C76.6831 14.4467 77.7697 14.8 79.1297 14.8ZM95.0783 14.9V0.900023H102.878V1.30002H95.4783V7.70002H101.158V8.10002H95.4783V14.9H95.0783ZM106.581 15.14C105.541 15.14 104.747 14.9067 104.201 14.44C103.654 13.9734 103.381 13.3467 103.381 12.56C103.381 11.8 103.641 11.2067 104.161 10.78C104.694 10.34 105.334 10.04 106.081 9.88002C106.827 9.70669 107.681 9.58669 108.641 9.52002C109.574 9.46669 110.281 9.37336 110.761 9.24002C111.254 9.10669 111.501 8.87336 111.501 8.54002C111.501 7.52669 111.161 6.70002 110.481 6.06002C109.814 5.42002 108.947 5.10002 107.881 5.10002C106.841 5.10002 105.981 5.39336 105.301 5.98002C104.634 6.56669 104.207 7.38002 104.021 8.42002H103.621C103.741 7.66002 103.987 7.00002 104.361 6.44002C104.747 5.88002 105.241 5.45336 105.841 5.16002C106.441 4.85336 107.121 4.70002 107.881 4.70002C108.681 4.70002 109.381 4.86669 109.981 5.20002C110.594 5.52002 111.067 5.98002 111.401 6.58002C111.734 7.18002 111.901 7.87336 111.901 8.66002V14.5H113.501V14.9H111.521V12C111.174 12.9467 110.547 13.7067 109.641 14.28C108.734 14.8534 107.714 15.14 106.581 15.14ZM106.581 14.74C107.514 14.74 108.354 14.54 109.101 14.14C109.847 13.74 110.434 13.2 110.861 12.52C111.287 11.84 111.501 11.0934 111.501 10.28L111.521 9.28002C111.307 9.45336 110.994 9.58669 110.581 9.68002C110.167 9.77336 109.621 9.84002 108.941 9.88002C108.901 9.88002 108.854 9.88669 108.801 9.90002C108.761 9.90002 108.714 9.90002 108.661 9.90002C106.954 10.02 105.714 10.2934 104.941 10.72C104.167 11.1334 103.781 11.7467 103.781 12.56C103.781 13.2534 104.027 13.7934 104.521 14.18C105.027 14.5534 105.714 14.74 106.581 14.74ZM119.83 15.1C118.63 15.1 117.59 14.8134 116.71 14.24C115.83 13.6667 115.31 12.82 115.15 11.7H115.55C115.71 12.7 116.19 13.4534 116.99 13.96C117.79 14.4534 118.73 14.7 119.81 14.7C120.316 14.7 120.836 14.6267 121.37 14.48C121.916 14.3334 122.376 14.0867 122.75 13.74C123.136 13.3934 123.33 12.9467 123.33 12.4C123.33 11.8934 123.183 11.4934 122.89 11.2C122.596 10.9067 122.223 10.6934 121.77 10.56C121.33 10.4267 120.716 10.2934 119.93 10.16C119.863 10.1467 119.79 10.1334 119.71 10.12C119.63 10.1067 119.556 10.0934 119.49 10.08C118.596 9.93336 117.883 9.78669 117.35 9.64002C116.816 9.49336 116.363 9.25336 115.99 8.92002C115.63 8.58669 115.45 8.12002 115.45 7.52002C115.45 6.86669 115.636 6.33336 116.01 5.92002C116.396 5.49336 116.883 5.18669 117.47 5.00002C118.056 4.80002 118.683 4.70002 119.35 4.70002C120.47 4.70002 121.423 4.98669 122.21 5.56002C123.01 6.12002 123.476 6.93336 123.61 8.00002H123.21C123.063 7.02669 122.623 6.30002 121.89 5.82002C121.17 5.34002 120.296 5.10002 119.27 5.10002C118.39 5.10002 117.596 5.29336 116.89 5.68002C116.196 6.06669 115.85 6.68002 115.85 7.52002C115.85 7.96002 115.976 8.31336 116.23 8.58002C116.496 8.84669 116.836 9.05336 117.25 9.20002C117.676 9.33336 118.21 9.45336 118.85 9.56002C118.943 9.57336 119.036 9.59336 119.13 9.62002C119.236 9.63336 119.336 9.64669 119.43 9.66002C119.47 9.67336 119.51 9.68002 119.55 9.68002C119.59 9.68002 119.636 9.68669 119.69 9.70002C120.583 9.84669 121.296 10 121.83 10.16C122.363 10.32 122.81 10.58 123.17 10.94C123.543 11.2867 123.73 11.7734 123.73 12.4C123.73 13.04 123.523 13.56 123.11 13.96C122.696 14.36 122.19 14.6534 121.59 14.84C121.003 15.0134 120.416 15.1 119.83 15.1ZM127.056 14.9V0.700024H127.456V7.72002C127.79 6.80002 128.323 6.06669 129.056 5.52002C129.79 4.97336 130.63 4.70002 131.576 4.70002C132.51 4.70002 133.31 4.90002 133.976 5.30002C134.656 5.68669 135.17 6.26002 135.516 7.02002C135.876 7.76669 136.056 8.66002 136.056 9.70002V14.9H135.656V9.70002C135.656 8.27336 135.29 7.15336 134.556 6.34002C133.836 5.51336 132.843 5.10002 131.576 5.10002C130.816 5.10002 130.116 5.30002 129.476 5.70002C128.85 6.10002 128.356 6.65336 127.996 7.36002C127.636 8.06669 127.456 8.84669 127.456 9.70002V14.9H127.056ZM140.26 14.9V4.90002H140.66V14.9H140.26ZM140.36 3.20002L140.16 2.31266e-05H140.76L140.56 3.20002H140.36ZM149.164 15.1C148.204 15.1 147.324 14.8734 146.524 14.42C145.738 13.9534 145.111 13.3267 144.644 12.54C144.191 11.74 143.964 10.86 143.964 9.90002C143.964 8.94002 144.191 8.06669 144.644 7.28002C145.111 6.48002 145.738 5.85336 146.524 5.40002C147.324 4.93336 148.204 4.70002 149.164 4.70002C150.124 4.70002 150.998 4.93336 151.784 5.40002C152.584 5.85336 153.211 6.48002 153.664 7.28002C154.131 8.06669 154.364 8.94002 154.364 9.90002C154.364 10.86 154.131 11.74 153.664 12.54C153.211 13.3267 152.584 13.9534 151.784 14.42C150.998 14.8734 150.124 15.1 149.164 15.1ZM149.164 14.7C150.058 14.7 150.871 14.4934 151.604 14.08C152.338 13.6534 152.911 13.0734 153.324 12.34C153.751 11.6067 153.964 10.7934 153.964 9.90002C153.964 9.00669 153.751 8.19336 153.324 7.46002C152.911 6.72669 152.338 6.15336 151.604 5.74002C150.871 5.31336 150.058 5.10002 149.164 5.10002C148.271 5.10002 147.458 5.31336 146.724 5.74002C145.991 6.15336 145.411 6.72669 144.984 7.46002C144.571 8.19336 144.364 9.00669 144.364 9.90002C144.364 10.7934 144.571 11.6067 144.984 12.34C145.411 13.0734 145.991 13.6534 146.724 14.08C147.458 14.4934 148.271 14.7 149.164 14.7ZM157.662 14.9V4.90002H158.062V7.72002C158.395 6.80002 158.929 6.06669 159.662 5.52002C160.395 4.97336 161.235 4.70002 162.182 4.70002C163.115 4.70002 163.915 4.90002 164.582 5.30002C165.262 5.68669 165.775 6.26002 166.122 7.02002C166.482 7.76669 166.662 8.66002 166.662 9.70002V14.9H166.262V9.70002C166.262 8.27336 165.895 7.15336 165.162 6.34002C164.442 5.51336 163.449 5.10002 162.182 5.10002C161.422 5.10002 160.722 5.30002 160.082 5.70002C159.455 6.10002 158.962 6.65336 158.602 7.36002C158.242 8.06669 158.062 8.84669 158.062 9.70002V14.9H157.662Z" fill="black"/>
</svg>
