<svg width="314" height="94" viewBox="0 0 314 94" fill="none" xmlns="http://www.w3.org/2000/svg">
<path d="M34.09 26.6C36.9367 27.2067 39.2233 28.63 40.95 30.87C42.6767 33.0634 43.54 35.5834 43.54 38.43C43.54 42.5367 42.0933 45.8034 39.2 48.23C36.3533 50.61 32.3633 51.8 27.23 51.8H4.34V2.66005H26.46C31.4533 2.66005 35.35 3.80338 38.15 6.09004C40.9967 8.37671 42.42 11.48 42.42 15.4C42.42 18.2934 41.65 20.6967 40.11 22.61C38.6167 24.5234 36.61 25.8534 34.09 26.6ZM16.31 22.54H24.15C26.11 22.54 27.6033 22.12 28.63 21.28C29.7033 20.3934 30.24 19.11 30.24 17.43C30.24 15.75 29.7033 14.4667 28.63 13.58C27.6033 12.6934 26.11 12.25 24.15 12.25H16.31V22.54ZM25.13 42.14C27.1367 42.14 28.6767 41.6967 29.75 40.81C30.87 39.8767 31.43 38.5467 31.43 36.82C31.43 35.0934 30.8467 33.74 29.68 32.76C28.56 31.78 26.9967 31.29 24.99 31.29H16.31V42.14H25.13ZM68.2626 52.36C64.4359 52.36 60.9826 51.5434 57.9026 49.91C54.8692 48.2767 52.4659 45.9434 50.6926 42.91C48.9659 39.8767 48.1026 36.33 48.1026 32.27C48.1026 28.2567 48.9892 24.7334 50.7626 21.7C52.5359 18.62 54.9626 16.2634 58.0426 14.63C61.1226 12.9967 64.5759 12.18 68.4026 12.18C72.2292 12.18 75.6826 12.9967 78.7626 14.63C81.8426 16.2634 84.2692 18.62 86.0426 21.7C87.8159 24.7334 88.7026 28.2567 88.7026 32.27C88.7026 36.2834 87.7926 39.83 85.9726 42.91C84.1992 45.9434 81.7492 48.2767 78.6226 49.91C75.5426 51.5434 72.0892 52.36 68.2626 52.36ZM68.2626 42C70.5492 42 72.4859 41.16 74.0726 39.48C75.7059 37.8 76.5226 35.3967 76.5226 32.27C76.5226 29.1434 75.7292 26.74 74.1426 25.06C72.6026 23.38 70.6892 22.54 68.4026 22.54C66.0692 22.54 64.1326 23.38 62.5926 25.06C61.0526 26.6934 60.2826 29.0967 60.2826 32.27C60.2826 35.3967 61.0292 37.8 62.5226 39.48C64.0626 41.16 65.9759 42 68.2626 42ZM112.833 52.36C109.006 52.36 105.553 51.5434 102.473 49.91C99.4396 48.2767 97.0362 45.9434 95.2629 42.91C93.5362 39.8767 92.6729 36.33 92.6729 32.27C92.6729 28.2567 93.5596 24.7334 95.3329 21.7C97.1062 18.62 99.5329 16.2634 102.613 14.63C105.693 12.9967 109.146 12.18 112.973 12.18C116.8 12.18 120.253 12.9967 123.333 14.63C126.413 16.2634 128.84 18.62 130.613 21.7C132.386 24.7334 133.273 28.2567 133.273 32.27C133.273 36.2834 132.363 39.83 130.543 42.91C128.77 45.9434 126.32 48.2767 123.193 49.91C120.113 51.5434 116.66 52.36 112.833 52.36ZM112.833 42C115.12 42 117.056 41.16 118.643 39.48C120.276 37.8 121.093 35.3967 121.093 32.27C121.093 29.1434 120.3 26.74 118.713 25.06C117.173 23.38 115.26 22.54 112.973 22.54C110.64 22.54 108.703 23.38 107.163 25.06C105.623 26.6934 104.853 29.0967 104.853 32.27C104.853 35.3967 105.6 37.8 107.093 39.48C108.633 41.16 110.546 42 112.833 42ZM163.493 51.8L151.593 35.42V51.8H139.623V4.81606e-05H151.593V28.63L163.423 12.74H178.193L161.953 32.34L178.333 51.8H163.493Z" fill="#2A2A2A"/>
<path d="M225.73 93.57C223.537 93.57 221.927 92.8234 220.9 91.33C219.92 89.8367 219.43 87.8067 219.43 85.24C219.43 82.3934 220.013 79.0334 221.18 75.16C222.347 71.2867 223.98 67.11 226.08 62.63C228.18 58.15 230.677 53.5534 233.57 48.84C236.51 44.08 239.73 39.39 243.23 34.77C242.483 35.0034 241.62 35.33 240.64 35.75C239.66 36.1234 238.773 36.5434 237.98 37.01C235.693 38.3634 233.173 40.09 230.42 42.19C227.667 44.2434 224.82 46.53 221.88 49.05C218.987 51.5234 216.14 54.09 213.34 56.75C210.54 59.41 207.927 62 205.5 64.52C203.073 66.9934 200.973 69.28 199.2 71.38C197.427 73.4334 196.097 75.1367 195.21 76.49C194.883 77.2367 194.58 77.9367 194.3 78.59C194.067 79.2434 193.833 79.85 193.6 80.41C193.507 80.7367 193.25 81.04 192.83 81.32C192.457 81.6 192.037 81.74 191.57 81.74C190.543 81.74 190.03 81.0167 190.03 79.57C190.03 79.1034 190.077 78.5667 190.17 77.96C190.31 77.3534 190.52 76.6767 190.8 75.93C191.033 75.37 191.64 74.11 192.62 72.15C193.6 70.19 194.813 67.8567 196.26 65.15C197.753 62.3967 199.363 59.3634 201.09 56.05C202.817 52.7367 204.52 49.4 206.2 46.04C207.413 43.66 208.44 41.28 209.28 38.9C210.167 36.52 210.61 34.3734 210.61 32.46C210.61 30.5467 210.003 28.9834 208.79 27.77C207.623 26.5567 205.57 25.95 202.63 25.95C198.29 25.95 193.787 26.3934 189.12 27.28C184.453 28.1667 179.787 29.4034 175.12 30.99C170.453 32.5767 165.95 34.42 161.61 36.52C157.27 38.62 153.233 40.8834 149.5 43.31C145.767 45.7367 142.5 48.2334 139.7 50.8C136.9 53.3667 134.707 55.9334 133.12 58.5C131.58 61.02 130.81 63.4234 130.81 65.71C130.81 67.7167 131.3 69.07 132.28 69.77C133.26 70.4234 134.497 70.75 135.99 70.75C136.97 70.75 137.973 70.6334 139 70.4C140.027 70.1667 140.983 69.9567 141.87 69.77C141.963 69.7234 142.127 69.7 142.36 69.7C143.153 69.7 143.55 70.0034 143.55 70.61C143.55 71.03 143.247 71.3334 142.64 71.52C141.567 71.8467 140.4 72.1267 139.14 72.36C137.927 72.5934 136.69 72.71 135.43 72.71C133.797 72.71 132.233 72.4767 130.74 72.01C129.247 71.5434 128.033 70.75 127.1 69.63C126.213 68.51 125.77 67.0167 125.77 65.15C125.77 62.7234 126.633 60.18 128.36 57.52C130.087 54.86 132.49 52.2 135.57 49.54C138.65 46.88 142.22 44.3134 146.28 41.84C150.34 39.32 154.703 36.9867 159.37 34.84C164.083 32.6934 168.937 30.8034 173.93 29.17C178.923 27.5367 183.893 26.2767 188.84 25.39C193.787 24.4567 198.5 23.99 202.98 23.99C207.413 23.99 210.517 24.76 212.29 26.3C214.063 27.84 214.95 29.8467 214.95 32.32C214.95 34.3267 214.507 36.5434 213.62 38.97C212.733 41.3967 211.637 43.8934 210.33 46.46C209.91 47.2534 209.257 48.4667 208.37 50.1C207.53 51.7334 206.527 53.6467 205.36 55.84C204.24 57.9867 203.05 60.2734 201.79 62.7C200.577 65.08 199.41 67.4367 198.29 69.77C200.53 67.0167 203.167 64.0534 206.2 60.88C209.233 57.66 212.477 54.4167 215.93 51.15C219.43 47.8834 222.977 44.8034 226.57 41.91C230.21 38.97 233.733 36.4267 237.14 34.28C238.54 33.3934 239.917 32.5767 241.27 31.83C242.623 31.0834 243.953 30.4767 245.26 30.01C245.633 29.87 246.1 29.9167 246.66 30.15C247.267 30.3367 247.827 30.6167 248.34 30.99C248.853 31.3634 249.203 31.7367 249.39 32.11C249.483 32.6234 249.343 33.4167 248.97 34.49C248.597 35.5167 247.92 36.5667 246.94 37.64C244.373 40.2534 241.923 43.24 239.59 46.6C237.257 49.9134 235.11 53.39 233.15 57.03C231.19 60.67 229.487 64.2634 228.04 67.81C226.593 71.3567 225.45 74.6934 224.61 77.82C223.817 80.9 223.42 83.56 223.42 85.8C223.42 89.2534 224.493 90.98 226.64 90.98C227.76 90.98 229.09 90.6534 230.63 90C232.17 89.3467 233.733 88.53 235.32 87.55C236.953 86.6167 238.353 85.7067 239.52 84.82C239.707 84.7267 239.823 84.68 239.87 84.68C240.057 84.68 240.173 84.75 240.22 84.89C240.313 85.0767 240.383 85.2167 240.43 85.31C240.43 85.45 240.407 85.6134 240.36 85.8C240.313 85.9867 240.197 86.15 240.01 86.29C239.73 86.57 239.147 87.0834 238.26 87.83C237.373 88.6234 236.253 89.4634 234.9 90.35C233.593 91.2367 232.147 91.9834 230.56 92.59C228.973 93.2434 227.363 93.57 225.73 93.57ZM245.491 80.06C243.764 80.06 242.504 79.5934 241.711 78.66C240.917 77.7267 240.521 76.6767 240.521 75.51C240.521 75.1367 240.544 74.7867 240.591 74.46C240.684 74.0867 240.777 73.7134 240.871 73.34C241.197 72.4067 241.781 71.2634 242.621 69.91C243.507 68.5567 244.487 67.2734 245.561 66.06C246.634 64.8 247.661 63.89 248.641 63.33C248.174 62.8167 247.941 62.1867 247.941 61.44C247.941 59.76 249.247 58.5234 251.861 57.73C252.514 57.4967 253.214 57.3567 253.961 57.31C254.754 57.2167 255.571 57.17 256.411 57.17C257.484 57.17 258.534 57.24 259.561 57.38C261.054 57.6134 262.361 58.2667 263.481 59.34C264.601 60.3667 265.254 61.6267 265.441 63.12C265.534 63.6334 265.534 64.1467 265.441 64.66C266.187 64.7067 266.911 64.73 267.611 64.73C268.357 64.6834 269.034 64.66 269.641 64.66C271.041 64.66 272.464 64.5667 273.911 64.38C275.404 64.1467 276.757 63.89 277.971 63.61C279.231 63.2834 280.164 62.9567 280.771 62.63C281.144 62.49 281.424 62.42 281.611 62.42C281.984 62.42 282.217 62.56 282.311 62.84C282.311 63.3067 281.867 63.75 280.981 64.17C279.954 64.6367 278.391 65.1034 276.291 65.57C274.191 66.0367 271.974 66.3167 269.641 66.41C269.081 66.4567 268.404 66.5034 267.611 66.55C266.864 66.55 266.024 66.55 265.091 66.55C264.577 68.4167 263.574 70.1667 262.081 71.8C260.634 73.4334 258.931 74.88 256.971 76.14C255.011 77.3534 253.004 78.31 250.951 79.01C248.944 79.71 247.124 80.06 245.491 80.06ZM262.921 64.52C263.154 63.82 263.271 63.2134 263.271 62.7C263.271 61.86 262.921 61.1367 262.221 60.53C261.567 59.9234 260.307 59.62 258.441 59.62C256.527 59.62 254.917 59.9 253.611 60.46C252.351 60.9734 251.721 61.44 251.721 61.86C251.721 61.9534 251.814 62.0934 252.001 62.28C252.187 62.4667 252.561 62.6534 253.121 62.84C254.614 63.3067 256.201 63.68 257.881 63.96C259.561 64.24 261.241 64.4267 262.921 64.52ZM246.821 78.03C247.707 77.8434 248.804 77.4234 250.111 76.77C251.464 76.1167 252.864 75.3 254.311 74.32C255.804 73.2934 257.181 72.1734 258.441 70.96C259.747 69.7934 260.937 68.3 262.011 66.48C260.284 66.48 258.581 66.4567 256.901 66.41C255.267 66.3634 253.797 66.0367 252.491 65.43C251.931 65.4767 251.137 65.92 250.111 66.76C249.084 67.5534 248.057 68.5567 247.031 69.77C246.004 70.9834 245.117 72.22 244.371 73.48C243.671 74.6934 243.321 75.7434 243.321 76.63C243.321 77.05 243.461 77.4234 243.741 77.75C244.067 78.03 244.627 78.17 245.421 78.17C245.607 78.17 245.817 78.17 246.051 78.17C246.284 78.1234 246.541 78.0767 246.821 78.03ZM295.484 79.71C293.478 79.71 292.078 79.2434 291.284 78.31C290.491 77.33 290.094 76.1867 290.094 74.88C290.094 74.0867 290.188 73.27 290.374 72.43C290.561 71.59 290.794 70.75 291.074 69.91C290.328 70.75 289.418 71.7067 288.344 72.78C287.271 73.8067 286.128 74.81 284.914 75.79C283.701 76.77 282.464 77.5867 281.204 78.24C279.991 78.8467 278.824 79.15 277.704 79.15C277.051 79.15 276.421 79.01 275.814 78.73C275.254 78.45 274.741 77.9834 274.274 77.33C273.621 76.3967 273.294 75.3934 273.294 74.32C273.294 72.8267 273.761 71.38 274.694 69.98C275.674 68.5334 276.561 67.2267 277.354 66.06C278.008 65.08 278.614 64.2634 279.174 63.61C279.734 62.91 280.178 62.3267 280.504 61.86C280.831 61.3934 280.994 60.9967 280.994 60.67C280.994 60.4367 280.878 60.25 280.644 60.11C280.271 59.83 280.084 59.5034 280.084 59.13C280.084 58.6634 280.341 58.43 280.854 58.43C280.948 58.43 281.134 58.4767 281.414 58.57C282.208 58.8967 282.861 59.4334 283.374 60.18C283.934 60.88 284.214 61.6734 284.214 62.56C284.214 63.26 284.051 63.8667 283.724 64.38C283.211 65.08 282.674 65.7567 282.114 66.41C281.508 67.0167 280.784 67.81 279.944 68.79C279.571 69.2567 279.058 69.98 278.404 70.96C277.751 71.94 277.168 72.9434 276.654 73.97C276.188 74.9967 275.954 75.86 275.954 76.56C275.954 76.8867 276.024 77.1434 276.164 77.33C276.304 77.5167 276.608 77.61 277.074 77.61C277.728 77.61 278.544 77.3534 279.524 76.84C280.551 76.3267 281.508 75.7667 282.394 75.16C283.328 74.5067 284.004 74.0167 284.424 73.69C285.918 72.43 287.458 71.03 289.044 69.49C290.631 67.9034 292.078 66.3167 293.384 64.73C293.944 64.03 294.551 63.68 295.204 63.68C295.718 63.68 296.138 63.89 296.464 64.31C296.838 64.73 297.024 65.2434 297.024 65.85C297.024 66.3167 296.884 66.76 296.604 67.18C295.858 68.4867 295.134 69.8867 294.434 71.38C293.734 72.8267 293.384 74.2967 293.384 75.79C293.384 77.4234 294.061 78.24 295.414 78.24C296.068 78.24 296.954 78.03 298.074 77.61C300.408 76.77 302.601 75.23 304.654 72.99C306.708 70.75 308.271 67.9734 309.344 64.66C309.811 63.3067 310.044 62.07 310.044 60.95C310.044 59.41 309.694 58.29 308.994 57.59C308.341 56.89 307.758 56.5167 307.244 56.47C307.104 56.47 306.708 56.54 306.054 56.68C305.401 56.82 304.678 57.2634 303.884 58.01C303.604 58.1967 303.371 58.29 303.184 58.29C302.904 58.29 302.694 58.15 302.554 57.87C302.508 57.8234 302.484 57.73 302.484 57.59C302.484 57.1234 302.788 56.6334 303.394 56.12C303.768 55.8867 304.164 55.63 304.584 55.35C305.004 55.07 305.354 54.86 305.634 54.72C306.474 54.3934 307.291 54.23 308.084 54.23C309.624 54.23 310.908 54.8367 311.934 56.05C312.961 57.2167 313.474 58.7567 313.474 60.67C313.474 61.4167 313.404 62.1867 313.264 62.98C313.124 63.7267 312.868 64.52 312.494 65.36C311.841 66.9 310.908 68.51 309.694 70.19C308.528 71.87 307.174 73.4334 305.634 74.88C304.094 76.3267 302.461 77.4934 300.734 78.38C299.008 79.2667 297.258 79.71 295.484 79.71Z" fill="#AF62FF"/>
</svg>
