<svg width="48" height="48" viewBox="0 0 48 48" fill="none" xmlns="http://www.w3.org/2000/svg">
<path d="M5.05984 29.5392C4.63454 32.3272 6.536 34.2624 8.8641 35.2268C17.7896 38.9244 30.2104 38.9244 39.1358 35.2268C41.464 34.2624 43.3654 32.3272 42.9402 29.5392C42.6788 27.8258 41.3864 26.399 40.4288 25.0058C39.1746 23.1586 39.05 21.1436 39.0498 19C39.0498 10.7157 32.3118 4 24 4C15.6883 4 8.95026 10.7157 8.95026 19C8.95006 21.1436 8.82544 23.1586 7.57122 25.0058C6.61368 26.399 5.32122 27.8258 5.05984 29.5392Z" stroke="white" stroke-width="3" stroke-linecap="round" stroke-linejoin="round"/>
<path d="M16 38C16.917 41.4504 20.151 44 24 44C27.849 44 31.083 41.4504 32 38" stroke="white" stroke-width="3" stroke-linecap="round" stroke-linejoin="round"/>
</svg>
