<svg width="136" height="644" viewBox="0 0 136 644" fill="none" xmlns="http://www.w3.org/2000/svg">
<g filter="url(#filter0_d_3144_669)">
<path d="M106.12 598.872C106.12 602.312 105.72 605.392 104.92 608.112C103.72 611.872 101.84 615.152 99.2801 617.952C96.7201 620.672 93.4401 622.592 89.4401 623.712C89.1201 623.792 88.8401 623.832 88.6001 623.832C88.3601 623.912 88.1201 623.952 87.8801 623.952C87.1601 623.952 86.8001 623.792 86.8001 623.472C86.8001 622.832 87.5601 622.392 89.0801 622.152C96.9201 620.232 101.6 615.192 103.12 607.032C103.6 604.872 103.84 602.712 103.84 600.552C103.84 596.792 103.24 593.072 102.04 589.392C100.92 585.712 99.4801 582.272 97.7201 579.072C95.2401 574.432 91.3601 569.032 86.0801 562.872C80.7201 556.712 74.6801 550.472 67.9601 544.152C67.0801 545.672 66.1201 547.072 65.0801 548.352C63.9601 549.632 62.6401 550.832 61.1201 551.952C60.7201 552.192 60.3601 552.312 60.0401 552.312C59.4001 552.312 59.0801 552.072 59.0801 551.592C59.0801 551.192 59.3601 550.832 59.9201 550.512C61.4401 549.632 62.8001 548.592 64.0001 547.392C65.2001 546.112 66.2001 544.712 67.0001 543.192L63.5201 539.952C56.8801 533.952 49.9601 528.232 42.7601 522.792C35.5601 517.352 28.4001 512.672 21.2801 508.752C21.1201 511.472 21.0401 514.072 21.0401 516.552C20.9601 519.032 20.9201 521.192 20.9201 523.032C20.9201 528.472 21.2801 534.392 22.0001 540.792C22.7201 547.112 23.8401 553.552 25.3601 560.112C26.8001 566.672 28.6801 573.032 31.0001 579.192C33.3201 585.272 36.0801 590.872 39.2801 595.992C42.4801 601.112 46.1601 605.392 50.3201 608.832C54.4001 612.272 59.0401 614.552 64.2401 615.672C65.2801 615.992 66.4401 616.152 67.7201 616.152C71.1601 616.152 74.0401 615.072 76.3601 612.912C78.6801 610.752 80.0401 608.472 80.4401 606.072C80.5201 605.112 80.7601 604.632 81.1601 604.632C81.4801 604.632 81.7601 604.952 82.0001 605.592C82.2401 606.152 82.3201 606.752 82.2401 607.392C81.9201 609.392 81.0001 611.432 79.4801 613.512C77.8801 615.592 75.8801 617.352 73.4801 618.792C71.0001 620.152 68.2801 620.832 65.3201 620.832C64.1201 620.832 62.9201 620.712 61.7201 620.472C56.6801 619.432 52.1201 617.232 48.0401 613.872C43.9601 610.512 40.3201 606.352 37.1201 601.392C33.9201 596.352 31.1601 590.792 28.8401 584.712C26.4401 578.632 24.4801 572.312 22.9601 565.752C21.4401 559.192 20.3201 552.712 19.6001 546.312C18.8801 539.832 18.5201 533.792 18.5201 528.192V523.392C18.5201 521.072 18.5601 518.592 18.6401 515.952C18.6401 513.232 18.7601 510.432 19.0001 507.552L16.3601 506.232C14.8401 505.592 14.0801 505.072 14.0801 504.672C14.0801 504.272 14.6001 504.072 15.6401 504.072C16.3601 504.072 16.8801 504.152 17.2001 504.312L19.1201 505.272C19.4401 501.032 20.0401 496.832 20.9201 492.672C21.7201 488.512 22.8401 484.752 24.2801 481.392C25.7201 477.952 27.6401 475.232 30.0401 473.232C32.3601 471.152 35.2401 470.112 38.6801 470.112C43.0001 470.112 46.9601 471.392 50.5601 473.952C54.0801 476.512 57.2001 479.872 59.9201 484.032C62.6401 488.112 64.9201 492.592 66.7601 497.472C68.6001 502.352 70.0001 507.152 70.9601 511.872C71.8401 516.592 72.2801 520.752 72.2801 524.352C72.2801 526.992 72.1201 529.592 71.8001 532.152C71.4801 534.632 70.9201 537.032 70.1201 539.352C77.1601 545.432 83.4001 551.632 88.8401 557.952C94.2801 564.272 98.2401 570.072 100.72 575.352C102.24 578.792 103.52 582.592 104.56 586.752C105.6 590.832 106.12 594.872 106.12 598.872ZM69.6401 530.472C69.6401 526.872 69.2401 522.712 68.4401 517.992C67.5601 513.192 66.3201 508.352 64.7201 503.472C63.0401 498.512 60.9201 493.952 58.3601 489.792C55.8001 485.632 52.8001 482.272 49.3601 479.712C45.9201 477.072 42.0401 475.752 37.7201 475.752C34.7601 475.752 32.3201 476.672 30.4001 478.512C28.4001 480.272 26.8001 482.632 25.6001 485.592C24.3201 488.552 23.3601 491.872 22.7201 495.552C22.0801 499.152 21.6401 502.752 21.4001 506.352C27.8001 509.792 34.6401 513.792 41.9201 518.352C49.1201 522.832 56.1601 527.832 63.0401 533.352C64.0001 534.152 65.0001 534.952 66.0401 535.752C67.0001 536.472 67.9201 537.272 68.8001 538.152C69.1201 536.952 69.3601 535.712 69.5201 534.432C69.6001 533.072 69.6401 531.752 69.6401 530.472ZM113.08 460.736C113.08 464.336 112.2 466.936 110.44 468.536C108.68 470.056 106.44 470.816 103.72 470.816C100.52 470.816 96.8401 469.976 92.6801 468.296C88.5201 466.536 84.3201 464.256 80.0801 461.456C75.7601 458.656 71.8401 455.656 68.3201 452.456C68.7201 453.896 68.9201 455.256 68.9201 456.536C68.9201 459.496 68.1601 461.856 66.6401 463.616L67.8401 464.456C68.6401 465.016 69.7601 466.016 71.2001 467.456C72.6401 468.816 73.9201 470.176 75.0401 471.536C77.9201 474.976 80.6401 478.616 83.2001 482.456C85.7601 486.216 87.8801 489.936 89.5601 493.616C91.2401 497.296 92.2001 500.736 92.4401 503.936C92.4401 504.256 92.3601 504.616 92.2001 505.016C92.1201 505.416 92.0001 505.616 91.8401 505.616C91.6001 505.616 91.3201 504.896 91.0001 503.456C90.4401 500.656 89.2801 497.576 87.5201 494.216C85.6801 490.776 83.5201 487.256 81.0401 483.656C78.4801 479.976 75.8401 476.456 73.1201 473.096C72.0001 471.736 70.7201 470.296 69.2801 468.776C67.8401 467.176 66.5601 465.776 65.4401 464.576C64.2401 465.456 62.8001 465.896 61.1201 465.896C59.2801 465.896 57.4401 465.416 55.6001 464.456C53.6801 463.416 51.9201 462.096 50.3201 460.496C48.7201 458.896 47.4401 457.216 46.4801 455.456C45.4401 453.616 44.9201 451.936 44.9201 450.416C44.9201 449.136 45.4401 448.496 46.4801 448.496C47.2001 448.496 47.8001 448.816 48.2801 449.456C48.7601 450.016 49.6801 450.976 51.0401 452.336C52.3201 453.616 53.8001 455.016 55.4801 456.536C57.1601 458.056 58.8001 459.416 60.4001 460.616C61.9201 461.816 63.1601 462.576 64.1201 462.896C64.6801 462.576 65.2001 462.136 65.6801 461.576C66.0801 461.016 66.2801 459.936 66.2801 458.336C66.2801 456.256 65.8801 454.296 65.0801 452.456C64.2001 450.536 63.2001 448.736 62.0801 447.056C61.9201 446.576 61.8401 446.136 61.8401 445.736C61.8401 443.976 62.3201 442.696 63.2801 441.896C63.7601 441.576 64.6401 441.976 65.9201 443.096C67.2001 444.216 68.4401 445.336 69.6401 446.456C72.1201 448.776 74.9601 451.136 78.1601 453.536C81.2801 455.936 84.4801 458.136 87.7601 460.136C91.0401 462.136 94.1601 463.736 97.1201 464.936C100.08 466.136 102.64 466.736 104.8 466.736C106.56 466.736 107.96 466.256 109 465.296C110.04 464.336 110.56 462.736 110.56 460.496C110.56 459.536 110.44 458.456 110.2 457.256C109.88 455.176 109.12 452.816 107.92 450.176C106.8 447.536 105.48 444.896 103.96 442.256C102.52 439.616 101.16 437.376 99.8801 435.536C99.8001 435.376 99.7601 435.216 99.7601 435.056C99.7601 434.816 99.9201 434.696 100.24 434.696C100.56 434.696 100.8 434.856 100.96 435.176C101.44 435.736 102.52 437.016 104.2 439.016C105.88 440.936 107.56 443.376 109.24 446.336C110.92 449.216 112.04 452.456 112.6 456.056C112.68 456.856 112.76 457.656 112.84 458.456C113 459.256 113.08 460.016 113.08 460.736ZM51.5201 408.974C51.5201 410.414 50.7201 411.134 49.1201 411.134C48.4801 411.134 47.8401 410.974 47.2001 410.654C46.5601 410.414 46.0401 409.614 45.6401 408.254C45.1601 406.894 44.8401 405.454 44.6801 403.934C44.4401 402.334 44.3201 401.094 44.3201 400.214C44.3201 399.494 44.3601 399.134 44.4401 399.134C44.6001 399.134 44.8401 399.534 45.1601 400.334C45.4801 401.134 45.8801 401.974 46.3601 402.854C46.8401 403.734 47.4001 404.334 48.0401 404.654C49.0801 405.054 49.9201 405.694 50.5601 406.574C51.2001 407.374 51.5201 408.174 51.5201 408.974ZM93.0401 429.374C93.0401 431.614 92.6401 433.574 91.8401 435.254C90.9601 436.934 89.4001 437.774 87.1601 437.774C84.7601 437.774 82.4001 437.174 80.0801 435.974C77.7601 434.774 75.6401 433.334 73.7201 431.654C71.7201 429.974 70.0001 428.334 68.5601 426.734C67.0401 425.054 65.9201 423.814 65.2001 423.014C65.0401 423.734 64.3201 423.614 63.0401 422.654C61.7601 421.694 60.7201 420.294 59.9201 418.454C59.7601 417.974 59.6801 417.534 59.6801 417.134C59.6801 416.254 59.8801 415.374 60.2801 414.494C60.6801 413.534 61.2401 413.054 61.9601 413.054C62.3601 413.054 62.7601 413.214 63.1601 413.534C63.5601 413.854 63.8801 414.174 64.1201 414.494C64.6001 415.134 65.4401 416.134 66.6401 417.494C67.8401 418.854 69.2001 420.334 70.7201 421.934C72.2401 423.534 73.7601 425.054 75.2801 426.494C76.7201 427.854 77.9201 428.934 78.8801 429.734C82.6401 432.694 85.5601 434.174 87.6401 434.174C89.8801 434.174 91.0001 432.374 91.0001 428.774C91.0001 425.814 90.5601 422.934 89.6801 420.134C88.7201 417.254 87.6001 414.574 86.3201 412.094C84.3201 408.174 81.9201 404.534 79.1201 401.174C76.2401 397.814 73.3601 394.334 70.4801 390.734C70.4001 390.574 70.3601 390.374 70.3601 390.134C70.3601 389.894 70.4801 389.774 70.7201 389.774C70.9601 389.774 71.2801 389.934 71.6801 390.254C72.3201 390.734 73.4001 391.734 74.9201 393.254C76.3601 394.774 78.0001 396.694 79.8401 399.014C81.6801 401.254 83.5201 403.774 85.3601 406.574C87.1201 409.294 88.6401 412.094 89.9201 414.974C90.5601 416.494 91.2401 418.654 91.9601 421.454C92.6801 424.174 93.0401 426.814 93.0401 429.374ZM93.6401 381.069C93.6401 382.909 93.4401 384.669 93.0401 386.349C92.6401 387.949 92.0401 389.429 91.2401 390.789C90.1201 392.549 88.8401 393.869 87.4001 394.749C85.8801 395.549 84.2801 395.949 82.6001 395.949C79.8001 395.949 76.8801 394.989 73.8401 393.069C70.8001 391.149 67.9201 388.629 65.2001 385.509C62.4001 382.309 60.0801 378.949 58.2401 375.429C57.1201 373.269 56.3201 371.149 55.8401 369.069C55.3601 366.989 55.1201 365.109 55.1201 363.429C55.1201 361.509 55.4001 359.909 55.9601 358.629C56.5201 357.349 57.2401 356.669 58.1201 356.589C60.2801 356.269 62.3601 356.869 64.3601 358.389C66.2801 359.909 68.0001 361.789 69.5201 364.029C71.0401 366.269 72.3201 368.309 73.3601 370.149C73.6001 370.469 73.7201 370.789 73.7201 371.109C73.7201 371.669 73.3201 371.749 72.5201 371.349C71.6401 370.869 70.8801 369.989 70.2401 368.709C69.6801 367.669 68.9201 366.549 67.9601 365.349C66.9201 364.149 65.8401 363.109 64.7201 362.229C63.5201 361.349 62.4801 360.909 61.6001 360.909C60.0801 360.909 59.3201 362.189 59.3201 364.749C59.3201 366.429 59.8801 368.469 61.0001 370.869C62.1201 373.269 63.6001 375.789 65.4401 378.429C67.2001 380.989 69.2001 383.389 71.4401 385.629C73.6001 387.869 75.8001 389.709 78.0401 391.149C80.2801 392.509 82.3201 393.189 84.1601 393.189C85.9201 393.189 87.3601 392.629 88.4801 391.509C89.5201 390.309 90.2801 388.829 90.7601 387.069C91.1601 385.229 91.3601 383.349 91.3601 381.429C91.3601 380.469 91.3201 379.509 91.2401 378.549C91.1601 377.589 91.0401 376.709 90.8801 375.909C90.0001 371.749 88.4801 367.549 86.3201 363.309C84.1601 358.989 81.6801 354.829 78.8801 350.829C76.0801 346.829 73.2801 343.229 70.4801 340.029C70.4001 339.869 70.3601 339.669 70.3601 339.429C70.3601 339.109 70.4401 338.949 70.6001 338.949C70.8401 338.949 71.1601 339.109 71.5601 339.429C72.5201 339.989 73.7601 341.149 75.2801 342.909C76.8001 344.589 78.3601 346.549 79.9601 348.789C81.5601 350.949 83.0801 353.069 84.5201 355.149C85.8801 357.229 86.9601 358.949 87.7601 360.309C89.4401 363.269 90.8401 366.589 91.9601 370.269C93.0801 373.949 93.6401 377.549 93.6401 381.069ZM93.6401 330.326C93.6401 332.166 93.4401 333.926 93.0401 335.606C92.6401 337.206 92.0401 338.686 91.2401 340.046C90.1201 341.806 88.8401 343.126 87.4001 344.006C85.8801 344.806 84.2801 345.206 82.6001 345.206C79.8001 345.206 76.8801 344.246 73.8401 342.326C70.8001 340.406 67.9201 337.886 65.2001 334.766C62.4001 331.566 60.0801 328.206 58.2401 324.686C57.1201 322.606 56.3201 320.526 55.8401 318.446C55.3601 316.366 55.1201 314.526 55.1201 312.926C55.1201 310.286 55.6401 308.566 56.6801 307.766C57.6401 306.886 58.7601 306.446 60.0401 306.446C61.5601 306.446 63.0001 306.926 64.3601 307.886C65.7201 308.766 67.0801 310.086 68.4401 311.846C70.9201 314.966 73.1601 319.206 75.1601 324.566C77.1601 329.846 78.5601 335.326 79.3601 341.006C80.1601 341.406 80.9601 341.766 81.7601 342.086C82.5601 342.326 83.3601 342.446 84.1601 342.446C85.9201 342.446 87.3601 341.886 88.4801 340.766C89.5201 339.566 90.2801 338.086 90.7601 336.326C91.1601 334.486 91.3601 332.606 91.3601 330.686C91.3601 329.726 91.3201 328.766 91.2401 327.806C91.1601 326.846 91.0401 325.966 90.8801 325.166C90.0001 321.006 88.4801 316.806 86.3201 312.566C84.1601 308.246 81.6801 304.086 78.8801 300.086C76.0801 296.086 73.2801 292.486 70.4801 289.286C70.4001 289.126 70.3601 288.926 70.3601 288.686C70.3601 288.366 70.4401 288.206 70.6001 288.206C70.8401 288.206 71.1601 288.366 71.5601 288.686C72.5201 289.246 73.7601 290.406 75.2801 292.166C76.8001 293.846 78.3601 295.806 79.9601 298.046C81.5601 300.206 83.0801 302.326 84.5201 304.406C85.8801 306.486 86.9601 308.206 87.7601 309.566C89.4401 312.526 90.8401 315.846 91.9601 319.526C93.0801 323.206 93.6401 326.806 93.6401 330.326ZM77.3201 339.926C76.9201 338.086 76.4001 335.886 75.7601 333.326C75.0401 330.766 74.2001 328.126 73.2401 325.406C72.2001 322.606 71.0801 320.046 69.8801 317.726C68.6001 315.406 67.2401 313.606 65.8001 312.326C64.4401 311.046 63.0401 310.406 61.6001 310.406C60.9601 310.406 60.4401 310.646 60.0401 311.126C59.5601 311.606 59.3201 312.566 59.3201 314.006C59.3201 315.686 59.8401 317.686 60.8801 320.006C61.9201 322.326 63.3201 324.766 65.0801 327.326C66.8401 329.806 68.8001 332.166 70.9601 334.406C73.0401 336.646 75.1601 338.486 77.3201 339.926ZM125.08 123.031C125.08 130.951 124.08 138.711 122.08 146.311C120.08 153.911 117.32 161.431 113.8 168.871C110.36 176.231 106.4 183.551 101.92 190.831C97.5201 198.111 92.8801 205.431 88.0001 212.791C92.0801 216.871 95.4001 221.151 97.9601 225.631C100.52 230.111 101.8 234.711 101.8 239.431C101.8 242.471 101.12 245.951 99.7601 249.871C98.4001 253.711 96.4801 256.911 94.0001 259.471C91.9201 261.631 89.6001 263.551 87.0401 265.231C84.4001 266.911 81.8001 268.311 79.2401 269.431C76.6801 270.471 74.4801 271.191 72.6401 271.591C70.0801 272.071 67.8801 272.311 66.0401 272.311C62.2801 272.311 59.6401 271.511 58.1201 269.911C56.5201 268.311 55.7201 266.231 55.7201 263.671C55.7201 261.431 56.2401 258.991 57.2801 256.351C58.2401 253.631 59.5201 250.911 61.1201 248.191C64.5601 242.511 68.1601 236.911 71.9201 231.391C75.6801 225.871 79.4001 220.391 83.0801 214.951C80.6801 212.711 78.1201 210.551 75.4001 208.471C72.6801 206.311 69.9601 204.191 67.2401 202.111C66.9201 206.911 65.6001 211.271 63.2801 215.191C60.8801 219.031 57.6401 222.071 53.5601 224.311C49.4001 226.471 44.6401 227.431 39.2801 227.191C35.2801 226.951 31.4801 225.711 27.8801 223.471C24.2801 221.151 21.3601 218.191 19.1201 214.591C16.8801 210.991 15.7601 207.191 15.7601 203.191C15.7601 200.311 16.4001 197.591 17.6801 195.031C18.0801 194.151 18.5201 193.711 19.0001 193.711C19.3201 193.711 19.5601 193.871 19.7201 194.191C19.8801 194.511 19.8401 194.871 19.6001 195.271C18.6401 196.791 18.1601 198.511 18.1601 200.431C18.1601 203.231 18.9601 206.191 20.5601 209.311C22.1601 212.351 24.4401 215.071 27.4001 217.471C30.2801 219.791 33.7201 221.311 37.7201 222.031C38.6001 222.191 39.5201 222.311 40.4801 222.391C41.3601 222.471 42.2401 222.511 43.1201 222.511C47.4401 222.511 51.2401 221.591 54.5201 219.751C57.8001 217.911 60.4001 215.351 62.3201 212.071C64.1601 208.791 65.0801 204.991 65.0801 200.671C63.4001 199.471 61.8001 198.351 60.2801 197.311C58.6801 196.271 57.2401 195.351 55.9601 194.551C51.8001 191.911 47.5601 189.431 43.2401 187.111C38.9201 184.711 34.8001 182.311 30.8801 179.911C26.8801 177.511 23.3201 174.991 20.2001 172.351C17.0801 169.711 14.6001 166.791 12.7601 163.591C10.9201 160.391 10.0001 156.831 10.0001 152.911C10.0001 150.831 10.7601 149.311 12.2801 148.351C13.7201 147.391 15.2401 146.911 16.8401 146.911C20.6001 146.911 24.6401 147.831 28.9601 149.671C33.2001 151.431 37.4001 153.911 41.5601 157.111C45.7201 160.311 49.6001 163.991 53.2001 168.151C56.8001 172.311 59.8401 176.751 62.3201 181.471C64.7201 186.191 66.2401 190.951 66.8801 195.751C70.2401 198.071 73.5601 200.471 76.8401 202.951C80.1201 205.431 83.1601 208.031 85.9601 210.751C90.5201 204.031 94.8801 197.271 99.0401 190.471C103.2 183.591 106.88 176.631 110.08 169.591C113.28 162.471 115.8 155.151 117.64 147.631C119.56 140.111 120.52 132.271 120.52 124.111C120.52 121.711 120.24 119.031 119.68 116.071C119.12 113.111 118.16 110.231 116.8 107.431C115.44 104.631 113.64 102.351 111.4 100.591C109.16 98.751 106.36 97.831 103 97.831C100.84 97.831 98.8001 98.151 96.8801 98.791C95.0401 99.351 93.3601 100.151 91.8401 101.191C91.6001 101.351 91.3601 101.431 91.1201 101.431C90.8801 101.431 90.7601 101.311 90.7601 101.071C90.7601 100.751 91.0001 100.311 91.4801 99.751C92.8401 98.071 94.6401 96.951 96.8801 96.391C99.2001 95.751 101.2 95.431 102.88 95.431C110.16 95.431 115.68 97.791 119.44 102.511C123.2 107.231 125.08 114.071 125.08 123.031ZM64.2401 193.951C63.1201 189.231 61.1201 184.711 58.2401 180.391C55.2801 175.991 51.8401 171.951 47.9201 168.271C44.0001 164.591 40.0401 161.431 36.0401 158.791C31.9601 156.071 28.2801 154.071 25.0001 152.791C24.3601 152.471 23.3201 152.151 21.8801 151.831C20.3601 151.431 18.8801 151.231 17.4401 151.231C16.0801 151.231 14.9201 151.511 13.9601 152.071C12.9201 152.551 12.4001 153.511 12.4001 154.951C12.4001 157.271 13.2401 159.431 14.9201 161.431C16.5201 163.351 18.3201 165.111 20.3201 166.711C25.4401 170.711 31.2001 174.551 37.6001 178.231C43.9201 181.831 50.1601 185.431 56.3201 189.031C57.5201 189.751 58.8001 190.551 60.1601 191.431C61.5201 192.231 62.8801 193.071 64.2401 193.951ZM95.9201 252.391C96.8001 250.551 97.4401 248.751 97.8401 246.991C98.2401 245.151 98.4401 243.351 98.4401 241.591C98.4401 237.031 97.2001 232.711 94.7201 228.631C92.2401 224.551 89.0801 220.671 85.2401 216.991C81.8001 222.191 78.3601 227.431 74.9201 232.711C71.4001 237.991 68.0401 243.351 64.8401 248.791C63.5601 250.871 62.6401 252.911 62.0801 254.911C61.5201 256.831 61.2401 258.591 61.2401 260.191C61.2401 262.511 61.8401 264.431 63.0401 265.951C64.1601 267.391 65.7601 268.111 67.8401 268.111C68.0801 268.111 68.3201 268.111 68.5601 268.111C68.8001 268.111 69.0401 268.071 69.2801 267.991C73.2001 267.351 77.2401 266.231 81.4001 264.631C85.4801 263.031 89.1201 260.671 92.3201 257.551C93.6801 256.031 94.8801 254.311 95.9201 252.391ZM51.5201 137.802C51.5201 139.242 50.7201 139.962 49.1201 139.962C48.4801 139.962 47.8401 139.802 47.2001 139.482C46.5601 139.242 46.0401 138.442 45.6401 137.082C45.1601 135.722 44.8401 134.282 44.6801 132.762C44.4401 131.162 44.3201 129.922 44.3201 129.042C44.3201 128.322 44.3601 127.962 44.4401 127.962C44.6001 127.962 44.8401 128.362 45.1601 129.162C45.4801 129.962 45.8801 130.802 46.3601 131.682C46.8401 132.562 47.4001 133.162 48.0401 133.482C49.0801 133.882 49.9201 134.522 50.5601 135.402C51.2001 136.202 51.5201 137.002 51.5201 137.802ZM93.0401 158.202C93.0401 160.442 92.6401 162.402 91.8401 164.082C90.9601 165.762 89.4001 166.602 87.1601 166.602C84.7601 166.602 82.4001 166.002 80.0801 164.802C77.7601 163.602 75.6401 162.162 73.7201 160.482C71.7201 158.802 70.0001 157.162 68.5601 155.562C67.0401 153.882 65.9201 152.642 65.2001 151.842C65.0401 152.562 64.3201 152.442 63.0401 151.482C61.7601 150.522 60.7201 149.122 59.9201 147.282C59.7601 146.802 59.6801 146.362 59.6801 145.962C59.6801 145.082 59.8801 144.202 60.2801 143.322C60.6801 142.362 61.2401 141.882 61.9601 141.882C62.3601 141.882 62.7601 142.042 63.1601 142.362C63.5601 142.682 63.8801 143.002 64.1201 143.322C64.6001 143.962 65.4401 144.962 66.6401 146.322C67.8401 147.682 69.2001 149.162 70.7201 150.762C72.2401 152.362 73.7601 153.882 75.2801 155.322C76.7201 156.682 77.9201 157.762 78.8801 158.562C82.6401 161.522 85.5601 163.002 87.6401 163.002C89.8801 163.002 91.0001 161.202 91.0001 157.602C91.0001 154.642 90.5601 151.762 89.6801 148.962C88.7201 146.082 87.6001 143.402 86.3201 140.922C84.3201 137.002 81.9201 133.362 79.1201 130.002C76.2401 126.642 73.3601 123.162 70.4801 119.562C70.4001 119.402 70.3601 119.202 70.3601 118.962C70.3601 118.722 70.4801 118.602 70.7201 118.602C70.9601 118.602 71.2801 118.762 71.6801 119.082C72.3201 119.562 73.4001 120.562 74.9201 122.082C76.3601 123.602 78.0001 125.522 79.8401 127.842C81.6801 130.082 83.5201 132.602 85.3601 135.402C87.1201 138.122 88.6401 140.922 89.9201 143.802C90.5601 145.322 91.2401 147.482 91.9601 150.282C92.6801 153.002 93.0401 155.642 93.0401 158.202ZM97.1201 123.217C97.1201 123.697 97.0801 124.177 97.0001 124.657C97.0001 125.137 96.9601 125.577 96.8801 125.977C96.7201 126.937 96.4001 127.777 95.9201 128.497C95.4401 129.137 94.7601 129.457 93.8801 129.457C93.4001 129.457 93.0401 129.417 92.8001 129.337C91.2001 128.777 89.4801 127.497 87.6401 125.497C85.7201 123.497 83.9201 121.097 82.2401 118.297C80.4801 115.497 79.0801 112.777 78.0401 110.137C76.0401 112.137 74.1601 113.697 72.4001 114.817C70.5601 115.937 68.7601 116.497 67.0001 116.497C64.6801 116.497 62.4401 115.417 60.2801 113.257C58.1201 111.017 55.9201 107.457 53.6801 102.577C52.6401 100.257 51.9201 98.1766 51.5201 96.3366C51.1201 94.4166 50.9201 92.7366 50.9201 91.2966C50.9201 89.4566 51.1601 87.9766 51.6401 86.8566C52.1201 85.7366 52.6401 84.9366 53.2001 84.4566C54.6401 83.2566 56.0401 82.6566 57.4001 82.6566C59.0001 82.6566 60.4001 83.2966 61.6001 84.5766C62.8001 85.8566 63.8401 87.2566 64.7201 88.7766C65.6001 90.2166 66.3601 91.2966 67.0001 92.0166C67.3201 92.3366 67.4801 92.6966 67.4801 93.0966C67.4801 93.4166 67.3601 93.6566 67.1201 93.8166C66.8801 93.8966 66.6801 93.7766 66.5201 93.4566C66.0401 92.5766 65.2001 91.5366 64.0001 90.3366C62.7201 89.0566 61.3201 87.9366 59.8001 86.9766C58.2801 86.0166 57.0001 85.5366 55.9601 85.5366C55.4001 85.5366 54.9601 85.6966 54.6401 86.0166C54.0001 86.6566 53.6801 87.7766 53.6801 89.3766C53.6801 91.1366 54.1201 93.2566 55.0001 95.7366C55.8001 98.2166 56.8801 100.617 58.2401 102.937C59.6001 105.257 61.1601 107.217 62.9201 108.817C64.6001 110.337 66.2801 111.097 67.9601 111.097C69.5601 111.097 71.0401 110.537 72.4001 109.417C73.7601 108.297 75.0401 107.177 76.2401 106.057C75.2001 103.817 74.3601 101.137 73.7201 98.0166C73.0001 94.8966 72.4401 91.6166 72.0401 88.1766C71.6401 84.7366 71.3601 81.4566 71.2001 78.3366C70.9601 75.1366 70.8401 72.3366 70.8401 69.9366C70.8401 68.5766 70.8401 67.4166 70.8401 66.4566C70.8401 65.4966 70.9201 64.7366 71.0801 64.1766C71.2401 63.7766 71.4001 63.5766 71.5601 63.5766C71.9601 63.5766 72.1601 63.8166 72.1601 64.2966C72.1601 64.8566 72.1201 65.4566 72.0401 66.0966C71.9601 66.6566 71.9201 67.3766 71.9201 68.2566C71.9201 70.8966 72.1201 74.0566 72.5201 77.7366C72.8401 81.4166 73.3201 85.1366 73.9601 88.8966C74.5201 92.6566 75.1601 95.9766 75.8801 98.8566C76.6001 101.657 77.3201 103.537 78.0401 104.497C79.8801 102.897 81.9201 102.097 84.1601 102.097C85.7601 102.097 87.3201 102.537 88.8401 103.417C90.3601 104.217 91.6001 105.497 92.5601 107.257C94.0801 109.657 95.2001 112.337 95.9201 115.297C96.7201 118.257 97.1201 120.897 97.1201 123.217ZM94.4801 123.217C94.4801 122.177 94.1201 120.497 93.4001 118.177C92.6801 115.777 91.6801 113.577 90.4001 111.577C88.5601 108.617 86.4001 107.137 83.9201 107.137C82.1601 107.137 80.4401 107.937 78.7601 109.537C79.1601 110.817 79.9601 112.377 81.1601 114.217C82.3601 115.977 83.7201 117.737 85.2401 119.497C86.7601 121.177 88.2401 122.617 89.6801 123.817C91.0401 124.937 92.1601 125.497 93.0401 125.497C94.0001 125.497 94.4801 124.737 94.4801 123.217ZM94.8401 67.0801C94.8401 69.8001 94.3201 72.2001 93.2801 74.2801C92.2401 76.2801 90.2401 77.2801 87.2801 77.2801C85.1201 77.2801 82.6001 76.4401 79.7201 74.7601C76.8401 73.0801 73.8001 70.8401 70.6001 68.0401C67.4001 65.2401 64.2001 62.2401 61.0001 59.0401C57.8001 55.7601 54.7601 52.5601 51.8801 49.4401C51.7201 50.4001 51.5201 51.3201 51.2801 52.2001C51.0401 53.0801 50.8401 53.9201 50.6801 54.7201C49.8001 58.4001 48.7601 62.7601 47.5601 67.8001C46.2801 72.7601 45.0401 78.1201 43.8401 83.8801C42.5601 89.6401 41.5201 95.5201 40.7201 101.52C39.8401 107.6 39.4001 113.52 39.4001 119.28C39.4001 126.8 40.4001 133.68 42.4001 139.92C44.3201 146.16 47.8401 150.92 52.9601 154.2C53.6801 154.6 54.0401 155.04 54.0401 155.52C54.0401 155.84 53.7201 156 53.0801 156C52.3601 156 51.6401 155.76 50.9201 155.28C47.1601 152.72 44.2001 149.52 42.0401 145.68C39.8801 141.84 38.3601 137.56 37.4801 132.84C36.5201 128.12 36.0401 123.2 36.0401 118.08C36.0401 112.88 36.4001 107.6 37.1201 102.24C37.8401 96.9601 38.7201 91.8801 39.7601 87.0001C40.8001 82.0401 41.8801 77.5201 43.0001 73.4401C44.0401 69.2801 44.9201 65.7601 45.6401 62.8801C46.2001 60.9601 46.8001 58.6001 47.4401 55.8001C48.0801 52.9201 48.7201 49.8801 49.3601 46.6801L42.5201 38.8801C42.2801 39.1201 41.9601 39.2401 41.5601 39.2401C40.7601 39.2401 39.8801 38.7601 38.9201 37.8001C37.9601 36.8401 37.1601 35.6001 36.5201 34.0801C36.2801 33.5201 36.2801 32.7201 36.5201 31.6801C36.7601 30.5601 37.1201 29.5201 37.6001 28.5601C38.0801 27.6001 38.6001 27.1201 39.1601 27.1201C39.6401 27.1201 40.2801 27.6801 41.0801 28.8001C41.8001 29.8401 42.2801 30.5601 42.5201 30.9601C43.0801 31.9201 44.0401 33.2801 45.4001 35.0401C46.7601 36.8001 48.3601 38.8401 50.2001 41.1601C50.6801 38.2001 51.0801 35.2001 51.4001 32.1601C51.6401 29.0401 51.7601 26.0801 51.7601 23.2801C51.7601 19.0401 51.3601 15.2001 50.5601 11.7601C49.6801 8.32008 48.2401 5.68008 46.2401 3.84008C44.1601 1.92008 41.3201 1.20008 37.7201 1.68009H37.6001C37.2001 1.68009 37.0001 1.48008 37.0001 1.08008C37.0001 0.680081 37.2001 0.400082 37.6001 0.240084C38.0801 0.160085 38.5601 0.120086 39.0401 0.120086C39.5201 0.040082 39.9601 8.01086e-05 40.3601 8.01086e-05C44.1201 8.01086e-05 47.1201 1.08008 49.3601 3.24008C51.5201 5.40008 53.0401 8.24008 53.9201 11.7601C54.8001 15.2801 55.2401 19.1601 55.2401 23.4001C55.2401 26.8401 55.0001 30.4001 54.5201 34.0801C54.0401 37.6801 53.5201 41.1201 52.9601 44.4001C55.6801 47.6001 58.6401 50.8801 61.8401 54.2401C64.9601 57.6001 68.1201 60.7201 71.3201 63.6001C74.4401 66.4801 77.3601 68.8401 80.0801 70.6801C82.8001 72.4401 85.0401 73.3201 86.8001 73.3201C88.5601 73.3201 89.8801 72.5601 90.7601 71.0401C91.6401 69.5201 92.0801 67.5201 92.0801 65.0401C92.0801 61.1201 91.1601 56.6401 89.3201 51.6001C89.1601 51.0401 88.9601 50.5201 88.7201 50.0401C88.4801 49.4801 88.2401 48.9201 88.0001 48.3601C86.3201 44.6001 84.2401 40.9201 81.7601 37.3201C79.2001 33.6401 76.6801 30.3201 74.2001 27.3601C73.4801 26.4801 72.8801 25.6801 72.4001 24.9601C71.9201 24.2401 71.2801 23.4801 70.4801 22.6801C70.4001 22.5201 70.3601 22.3601 70.3601 22.2001C70.3601 21.9601 70.4801 21.8401 70.7201 21.8401C70.9601 21.8401 71.2801 21.9601 71.6801 22.2001C72.3201 22.6801 73.5201 23.8401 75.2801 25.6801C76.9601 27.5201 78.8801 29.8001 81.0401 32.5201C83.1201 35.2401 85.1601 38.2001 87.1601 41.4001C89.0801 44.5201 90.6001 47.6801 91.7201 50.8801C92.2801 52.4801 92.9201 54.8401 93.6401 57.9601C94.4401 61.0001 94.8401 64.0401 94.8401 67.0801Z" fill="#FFF9FE"/>
</g>
<defs>
<filter id="filter0_d_3144_669" x="0" y="0" width="135.08" height="643.952" filterUnits="userSpaceOnUse" color-interpolation-filters="sRGB">
<feFlood flood-opacity="0" result="BackgroundImageFix"/>
<feColorMatrix in="SourceAlpha" type="matrix" values="0 0 0 0 0 0 0 0 0 0 0 0 0 0 0 0 0 0 127 0" result="hardAlpha"/>
<feOffset dy="10"/>
<feGaussianBlur stdDeviation="5"/>
<feComposite in2="hardAlpha" operator="out"/>
<feColorMatrix type="matrix" values="0 0 0 0 0 0 0 0 0 0 0 0 0 0 0 0 0 0 0.5 0"/>
<feBlend mode="normal" in2="BackgroundImageFix" result="effect1_dropShadow_3144_669"/>
<feBlend mode="normal" in="SourceGraphic" in2="effect1_dropShadow_3144_669" result="shape"/>
</filter>
</defs>
</svg>
