<svg width="48" height="48" viewBox="0 0 48 48" fill="none" xmlns="http://www.w3.org/2000/svg">
<path fill-rule="evenodd" clip-rule="evenodd" d="M32.6687 17.4234C32.6687 19.7339 31.7509 21.9497 30.1171 23.5835C28.4834 25.2172 26.2675 26.1351 23.9571 26.1351C21.6466 26.1351 19.4307 25.2172 17.797 23.5835C16.1632 21.9497 15.2454 19.7339 15.2454 17.4234C15.2454 15.1129 16.1632 12.8971 17.797 11.2633C19.4307 9.62954 21.6466 8.7117 23.9571 8.7117C26.2675 8.7117 28.4834 9.62954 30.1171 11.2633C31.7509 12.8971 32.6687 15.1129 32.6687 17.4234ZM28.3129 17.4234C28.3129 18.5786 27.854 19.6866 27.0371 20.5034C26.2202 21.3203 25.1123 21.7792 23.9571 21.7792C22.8018 21.7792 21.6939 21.3203 20.877 20.5034C20.0601 19.6866 19.6012 18.5786 19.6012 17.4234C19.6012 16.2681 20.0601 15.1602 20.877 14.3433C21.6939 13.5265 22.8018 13.0675 23.9571 13.0675C25.1123 13.0675 26.2202 13.5265 27.0371 14.3433C27.854 15.1602 28.3129 16.2681 28.3129 17.4234Z" fill="white"/>
<path fill-rule="evenodd" clip-rule="evenodd" d="M23.9571 0C10.7263 0 0 10.7263 0 23.9571C0 37.188 10.7263 47.9143 23.9571 47.9143C37.188 47.9143 47.9143 37.188 47.9143 23.9571C47.9143 10.7263 37.188 0 23.9571 0ZM4.35584 23.9571C4.35584 28.509 5.9087 32.6993 8.51132 36.0272C10.3396 33.6274 12.6976 31.6825 15.4015 30.3444C18.1053 29.0063 21.0818 28.311 24.0987 28.313C27.0768 28.3095 30.0163 28.9862 32.6931 30.2914C35.3699 31.5965 37.7133 33.4958 39.5445 35.8442C41.4316 33.3693 42.7022 30.4805 43.2511 27.417C43.8001 24.3534 43.6117 21.2032 42.7014 18.227C41.7912 15.2508 40.1853 12.534 38.0167 10.3017C35.8481 8.06926 33.179 6.38536 30.2304 5.38929C27.2818 4.39321 24.1383 4.1136 21.0602 4.57358C17.9821 5.03356 15.0577 6.21991 12.5291 8.03447C10.0005 9.84903 7.94029 12.2396 6.51902 15.0085C5.09775 17.7773 4.35624 20.8448 4.35584 23.9571ZM23.9571 43.5584C19.4574 43.5657 15.0933 42.0177 11.604 39.1765C13.0083 37.1654 14.8778 35.5234 17.0533 34.3904C19.2288 33.2573 21.6458 32.6667 24.0987 32.6688C26.5209 32.6667 28.9087 33.2426 31.0637 34.3487C33.2186 35.4548 35.0785 37.0591 36.4889 39.0284C32.9726 41.962 28.5365 43.5656 23.9571 43.5584Z" fill="white"/>
</svg>
