<svg width="87" height="569" viewBox="0 0 87 569" fill="none" xmlns="http://www.w3.org/2000/svg">
<path d="M86.7599 534.294C86.7599 544.134 84.4399 552.214 79.7999 558.534C75.0799 564.854 68.3599 568.254 59.6399 568.734V543.654C62.5999 543.414 64.7599 542.534 66.1199 541.014C67.4799 539.494 68.1599 537.534 68.1599 535.134C68.1599 532.974 67.6399 531.214 66.5999 529.854C65.4799 528.414 63.9599 527.694 62.0399 527.694C59.5599 527.694 57.6399 528.854 56.2799 531.174C54.9199 533.494 53.3999 537.254 51.7199 542.454C49.8799 547.974 48.1199 552.454 46.4399 555.894C44.6799 559.254 42.1599 562.214 38.8799 564.774C35.5199 567.254 31.1599 568.494 25.7999 568.494C20.3599 568.494 15.7199 567.134 11.8799 564.414C7.95992 561.694 4.99992 557.934 2.99992 553.134C0.999918 548.334 -8.05855e-05 542.894 -8.05855e-05 536.814C-8.05855e-05 526.974 2.31992 519.134 6.95992 513.294C11.5199 507.374 17.9599 504.214 26.2799 503.814V529.374C23.7199 529.454 21.7999 530.254 20.5199 531.774C19.2399 533.214 18.5999 535.094 18.5999 537.414C18.5999 539.174 19.1199 540.614 20.1599 541.734C21.1999 542.854 22.6799 543.414 24.5999 543.414C26.1999 543.414 27.5999 542.814 28.7999 541.614C29.9199 540.334 30.9199 538.774 31.7999 536.934C32.5999 535.094 33.6399 532.374 34.9199 528.774C36.7599 523.414 38.5999 519.014 40.4399 515.574C42.1999 512.054 44.7199 509.054 47.9999 506.574C51.1999 504.014 55.2799 502.734 60.2399 502.734C65.2799 502.734 69.7999 504.014 73.7999 506.574C77.7999 509.054 80.9599 512.694 83.2799 517.494C85.5999 522.214 86.7599 527.814 86.7599 534.294ZM20.1599 468.28H33.9599V441.28H51.8399V468.28H67.0799V437.68H85.9199V491.8H1.31992V437.68H20.1599V468.28ZM85.9199 383.218L54.7199 400.018V402.538H85.9199V426.058H1.31992V388.978C1.31992 382.178 2.51992 376.418 4.91992 371.698C7.23992 366.978 10.4799 363.418 14.6399 361.018C18.7199 358.618 23.3199 357.418 28.4399 357.418C34.1999 357.418 39.2799 359.018 43.6799 362.218C47.9999 365.338 51.0799 369.938 52.9199 376.018L85.9199 356.938V383.218ZM38.6399 402.538V390.898C38.6399 387.698 37.8799 385.298 36.3599 383.698C34.8399 382.098 32.6399 381.298 29.7599 381.298C27.0399 381.298 24.9199 382.138 23.3999 383.818C21.7999 385.418 20.9999 387.778 20.9999 390.898V402.538H38.6399ZM1.31992 264.402L85.9199 293.562V323.682L1.31992 352.962V327.762L62.3999 308.562L1.31992 289.482V264.402ZM1.31992 233.554H85.9199V257.074H1.31992V233.554ZM43.4399 223.04C35.1199 223.04 27.7199 221.32 21.2399 217.88C14.6799 214.36 9.59992 209.4 5.99992 203C2.31992 196.6 0.47992 189.24 0.47992 180.92C0.47992 170.36 3.31992 161.48 8.99992 154.28C14.5999 147.08 22.2399 142.44 31.9199 140.36V165.68C28.7199 167.2 26.2799 169.32 24.5999 172.04C22.9199 174.68 22.0799 177.76 22.0799 181.28C22.0799 186.72 24.0399 191.08 27.9599 194.36C31.7999 197.56 36.9599 199.16 43.4399 199.16C49.9999 199.16 55.2399 197.56 59.1599 194.36C62.9999 191.08 64.9199 186.72 64.9199 181.28C64.9199 177.76 64.0799 174.68 62.3999 172.04C60.7199 169.32 58.2799 167.2 55.0799 165.68V140.36C64.7599 142.44 72.4399 147.08 78.1199 154.28C83.7199 161.48 86.5199 170.36 86.5199 180.92C86.5199 189.24 84.7199 196.6 81.1199 203C77.4399 209.4 72.3599 214.36 65.8799 217.88C59.3199 221.32 51.8399 223.04 43.4399 223.04ZM20.1599 105.702H33.9599V78.7021H51.8399V105.702H67.0799V75.1021H85.9199V129.222H1.31992V75.1021H20.1599V105.702ZM86.7599 31.5599C86.7599 41.3999 84.4399 49.4799 79.7999 55.8C75.0799 62.12 68.3599 65.52 59.6399 66V40.9199C62.5999 40.6799 64.7599 39.8 66.1199 38.28C67.4799 36.7599 68.1599 34.7999 68.1599 32.3999C68.1599 30.2399 67.6399 28.4799 66.5999 27.1199C65.4799 25.6799 63.9599 24.96 62.0399 24.96C59.5599 24.96 57.6399 26.12 56.2799 28.4399C54.9199 30.7599 53.3999 34.52 51.7199 39.72C49.8799 45.24 48.1199 49.72 46.4399 53.16C44.6799 56.52 42.1599 59.48 38.8799 62.04C35.5199 64.52 31.1599 65.76 25.7999 65.76C20.3599 65.76 15.7199 64.4 11.8799 61.68C7.95992 58.96 4.99992 55.2 2.99992 50.4C0.999918 45.6 -8.05855e-05 40.1599 -8.05855e-05 34.0799C-8.05855e-05 24.2399 2.31992 16.3999 6.95992 10.56C11.5199 4.63995 17.9599 1.47995 26.2799 1.07995V26.64C23.7199 26.7199 21.7999 27.5199 20.5199 29.0399C19.2399 30.4799 18.5999 32.3599 18.5999 34.68C18.5999 36.4399 19.1199 37.8799 20.1599 38.9999C21.1999 40.1199 22.6799 40.68 24.5999 40.68C26.1999 40.68 27.5999 40.08 28.7999 38.88C29.9199 37.6 30.9199 36.0399 31.7999 34.1999C32.5999 32.3599 33.6399 29.6399 34.9199 26.0399C36.7599 20.6799 38.5999 16.2799 40.4399 12.8399C42.1999 9.31995 44.7199 6.31995 47.9999 3.83995C51.1999 1.27995 55.2799 -5.34058e-05 60.2399 -5.34058e-05C65.2799 -5.34058e-05 69.7999 1.27995 73.7999 3.83995C77.7999 6.31995 80.9599 9.95995 83.2799 14.7599C85.5999 19.4799 86.7599 25.0799 86.7599 31.5599Z" fill="#2A2A2A"/>
</svg>
