<svg width="33" height="32" viewBox="0 0 33 32" fill="none" xmlns="http://www.w3.org/2000/svg">
<path d="M29.1072 17.568C29.175 17.056 29.2259 16.544 29.2259 16C29.2259 15.456 29.175 14.944 29.1072 14.432L32.6863 11.792C33.0086 11.552 33.0934 11.12 32.8899 10.768L29.4973 5.232C29.3446 4.976 29.0563 4.832 28.7509 4.832C28.6492 4.832 28.5474 4.848 28.4626 4.88L24.2388 6.48C23.3567 5.84 22.4068 5.312 21.3721 4.912L20.7275 0.672C20.6766 0.288 20.3204 0 19.8963 0H13.1112C12.6871 0 12.3309 0.288 12.28 0.672L11.6354 4.912C10.6007 5.312 9.65074 5.856 8.76867 6.48L4.54492 4.88C4.44314 4.848 4.34136 4.832 4.23959 4.832C3.95122 4.832 3.66285 4.976 3.51018 5.232L0.117606 10.768C-0.102911 11.12 -0.00113363 11.552 0.321161 11.792L3.90033 14.432C3.83248 14.944 3.78159 15.472 3.78159 16C3.78159 16.528 3.83248 17.056 3.90033 17.568L0.321161 20.208C-0.00113363 20.448 -0.0859482 20.88 0.117606 21.232L3.51018 26.768C3.66285 27.024 3.95122 27.168 4.25655 27.168C4.35833 27.168 4.4601 27.152 4.54492 27.12L8.76867 25.52C9.65074 26.16 10.6007 26.688 11.6354 27.088L12.28 31.328C12.3309 31.712 12.6871 32 13.1112 32H19.8963C20.3204 32 20.6766 31.712 20.7275 31.328L21.3721 27.088C22.4068 26.688 23.3567 26.144 24.2388 25.52L28.4626 27.12C28.5644 27.152 28.6661 27.168 28.7679 27.168C29.0563 27.168 29.3446 27.024 29.4973 26.768L32.8899 21.232C33.0934 20.88 33.0086 20.448 32.6863 20.208L29.1072 17.568ZM25.7485 14.832C25.8164 15.328 25.8333 15.664 25.8333 16C25.8333 16.336 25.7994 16.688 25.7485 17.168L25.511 18.976L27.0207 20.096L28.8527 21.44L27.6653 23.376L25.511 22.56L23.7469 21.888L22.2202 22.976C21.4908 23.488 20.7954 23.872 20.0999 24.144L18.3018 24.832L18.0304 26.64L17.6911 28.8H15.3163L14.9941 26.64L14.7226 24.832L12.9246 24.144C12.1952 23.856 11.5167 23.488 10.8381 23.008L9.29452 21.888L7.49646 22.576L5.34217 23.392L4.15477 21.456L5.98676 20.112L7.49646 18.992L7.25898 17.184C7.20809 16.688 7.17416 16.32 7.17416 16C7.17416 15.68 7.20809 15.312 7.25898 14.832L7.49646 13.024L5.98676 11.904L4.15477 10.56L5.34217 8.624L7.49646 9.44L9.2606 10.112L10.7873 9.024C11.5167 8.512 12.2121 8.128 12.9076 7.856L14.7057 7.168L14.9771 5.36L15.3163 3.2H17.6742L17.9965 5.36L18.2679 7.168L20.066 7.856C20.7954 8.144 21.4739 8.512 22.1524 8.992L23.696 10.112L25.4941 9.424L27.6484 8.608L28.8358 10.544L27.0207 11.904L25.511 13.024L25.7485 14.832ZM16.5037 9.6C12.755 9.6 9.71859 12.464 9.71859 16C9.71859 19.536 12.755 22.4 16.5037 22.4C20.2525 22.4 23.2889 19.536 23.2889 16C23.2889 12.464 20.2525 9.6 16.5037 9.6ZM16.5037 19.2C14.6378 19.2 13.1112 17.76 13.1112 16C13.1112 14.24 14.6378 12.8 16.5037 12.8C18.3697 12.8 19.8963 14.24 19.8963 16C19.8963 17.76 18.3697 19.2 16.5037 19.2Z" fill="#323232"/>
</svg>
