<svg width="242" height="284" viewBox="0 0 242 284" fill="none" xmlns="http://www.w3.org/2000/svg">
<path fill-rule="evenodd" clip-rule="evenodd" d="M143.435 34.6542C161.267 31.6693 170.635 5.95749 188.349 2.21093C205.485 -1.4134 230.693 -2.50619 239.054 14.4306C249.268 35.1243 229.743 60.0459 228.515 83.5836C227.85 96.347 234.189 108.45 233.486 121.211C232.817 133.337 230.013 145.436 224.526 155.959C219.363 165.863 207.176 169.673 202.818 180.039C197.084 193.679 207.476 216.266 195.876 224.117C184.236 231.994 168.36 202.562 157.052 211.012C135.974 226.765 141.025 271.206 117.732 282.516C102.147 290.083 83.8522 267.098 76.4081 250.169C68.0083 231.067 83.2365 206.542 75.727 186.992C70.4677 173.3 52.7906 171.888 42.6066 162.17C27.6142 147.864 -6.79476 135.905 1.18413 115.862C11.1478 90.8319 53.6181 109.946 71.0964 90.6014C81.8734 78.6735 62.6581 55.6679 69.2893 40.4837C75.2175 26.9093 89.8996 17.4835 103.495 16.4145C117.986 15.2753 129.071 37.0585 143.435 34.6542Z" fill="#C4C4C4" fill-opacity="0.2"/>
</svg>
