<svg width="117" height="124" viewBox="0 0 117 124" fill="none" xmlns="http://www.w3.org/2000/svg">
<path fill-rule="evenodd" clip-rule="evenodd" d="M51.7736 0.443138C66.4264 4.42093 59.5161 30.9269 72.5438 38.4638C85.1002 45.7281 108.593 25.3074 115.83 37.5017C123.101 49.7537 94.1538 58.7699 92.9217 72.8018C91.856 84.938 112.318 92.8822 109.917 104.843C107.762 115.577 94.0328 125.207 82.6675 123.877C68.8418 122.258 64.5979 103.228 51.7736 98.0383C45.6267 95.5508 38.6009 107.302 33.0298 103.79C27.285 100.168 35.294 89.2083 30.4143 84.5725C22.6179 77.1656 4.44554 82.5699 0.41205 72.8018C-2.84817 64.9063 14.1975 61.8422 17.83 54.0962C22.1141 44.9607 17.4217 33.5392 22.8422 24.9713C29.6254 14.2494 39.1519 -2.98328 51.7736 0.443138Z" fill="#C4C4C4" fill-opacity="0.2"/>
</svg>
