<svg width="517" height="142" viewBox="0 0 517 142" fill="none" xmlns="http://www.w3.org/2000/svg">
<path fill-rule="evenodd" clip-rule="evenodd" d="M0.578657 75.9672C6.47563 60.627 64.6248 56.0093 86.6695 42.7649C108.002 29.9482 86.6913 5.82376 125.539 0.892057C168.192 -4.52289 203.01 16.2162 244.491 22.7292C267.821 26.3923 290.779 29.8595 316.049 30.8046C364.391 32.6125 418.326 21.2749 459.354 30.7649C497.858 39.6711 530.581 60.907 511.3 75.9672C488.369 93.8788 414.482 91.6966 368.171 101.987C347.03 106.684 333.703 114.366 313.965 119.814C291.625 125.981 271.1 132.919 244.491 136.126C211.339 140.121 175.557 144.303 142.225 140.511C107.002 136.504 81.942 125.513 58.8965 115.012C33.0595 103.239 -5.1602 90.896 0.578657 75.9672Z" fill="#C4C4C4" fill-opacity="0.2"/>
</svg>
