<svg width="173" height="165" viewBox="0 0 173 165" fill="none" xmlns="http://www.w3.org/2000/svg">
<path fill-rule="evenodd" clip-rule="evenodd" d="M105.056 51.9115C123.126 36.2408 137.531 -12.4151 155.847 2.96775C175.511 19.4832 127.803 49.827 132.615 75.0574C135.351 89.4075 168.073 77.0956 172.631 90.9747C176.419 102.509 149.917 103.029 145.517 114.344C139.792 129.068 156.81 149.978 145.43 160.932C135.39 170.597 116.671 160.995 105.056 153.294C94.9021 146.562 99.1181 123.704 87.0284 122.212C62.234 119.152 38.6799 153.13 16.1542 142.322C0.361262 134.745 23.6086 108.415 21.9217 90.9747C19.9729 70.8269 -12.8718 41.7372 5.63352 33.5507C32.6692 21.5905 59.0777 56.3087 88.1477 61.6772C94.6585 62.8796 100.053 56.25 105.056 51.9115Z" fill="#C4C4C4" fill-opacity="0.2"/>
</svg>
