<svg width="40" height="40" viewBox="0 0 40 40" fill="none" xmlns="http://www.w3.org/2000/svg">
<path d="M20 9.73749C31.1175 9.73749 36.25 20 36.25 20C36.25 20 31.1175 30.2625 20 30.2625C8.8825 30.2625 3.75 20 3.75 20C3.75 20 8.8825 9.73749 20 9.73749Z" stroke="#AF62FF" stroke-width="0.929" stroke-linejoin="round"/>
<path d="M24.85 20C24.8649 20.6659 24.7466 21.328 24.5021 21.9475C24.2576 22.567 23.8918 23.1314 23.4261 23.6076C22.9604 24.0838 22.4044 24.4621 21.7905 24.7204C21.1766 24.9787 20.5173 25.1118 19.8513 25.1118C19.1852 25.1118 18.5259 24.9787 17.912 24.7204C17.2982 24.4621 16.7421 24.0838 16.2764 23.6076C15.8108 23.1314 15.4449 22.567 15.2004 21.9475C14.9559 21.328 14.8376 20.6659 14.8525 20C14.8525 18.6739 15.3793 17.4021 16.317 16.4645C17.2547 15.5268 18.5264 15 19.8525 15C21.1786 15 22.4504 15.5268 23.388 16.4645C24.3257 17.4021 24.8525 18.6739 24.8525 20H24.85Z" stroke="#AF62FF" stroke-width="0.929" stroke-linejoin="round"/>
</svg>
