<svg width="28" height="25" viewBox="0 0 28 25" fill="none" xmlns="http://www.w3.org/2000/svg">
<path d="M19 2.0847C20.8522 3.00514 22.125 4.91642 22.125 7.125C22.125 9.33358 20.8522 11.2449 19 12.1653M21.5 18.708C23.3893 19.5629 25.0907 20.9562 26.5 22.75M1.5 22.75C3.93311 19.6532 7.23647 17.75 10.875 17.75C14.5135 17.75 17.8169 19.6532 20.25 22.75M16.5 7.125C16.5 10.2316 13.9816 12.75 10.875 12.75C7.7684 12.75 5.25 10.2316 5.25 7.125C5.25 4.0184 7.7684 1.5 10.875 1.5C13.9816 1.5 16.5 4.0184 16.5 7.125Z" stroke="#AF62FF" stroke-width="3" stroke-linecap="round" stroke-linejoin="round"/>
</svg>
