<svg width="28" height="27" viewBox="0 0 28 27" fill="none" xmlns="http://www.w3.org/2000/svg">
<path d="M1.5 6.26606C1.5 4.01931 1.5 2.89594 2.23224 2.19798C2.96446 1.5 4.14297 1.5 6.5 1.5C8.85702 1.5 10.0355 1.5 10.7678 2.19798C11.5 2.89594 11.5 4.01931 11.5 6.26606V8.64909C11.5 10.8958 11.5 12.0192 10.7678 12.7172C10.0355 13.4151 8.85702 13.4151 6.5 13.4151C4.14297 13.4151 2.96446 13.4151 2.23224 12.7172C1.5 12.0192 1.5 10.8958 1.5 8.64909V6.26606Z" stroke="#AF62FF" stroke-width="3"/>
<path d="M1.5 21.8512C1.5 20.7408 1.5 20.1857 1.6903 19.7477C1.94404 19.1638 2.43073 18.6998 3.04329 18.458C3.50273 18.2766 4.08515 18.2766 5.25 18.2766H7.75C8.91485 18.2766 9.49728 18.2766 9.95671 18.458C10.5693 18.6998 11.056 19.1638 11.3097 19.7477C11.5 20.1857 11.5 20.7408 11.5 21.8512C11.5 22.9615 11.5 23.5167 11.3097 23.9547C11.056 24.5385 10.5693 25.0025 9.95671 25.2443C9.49728 25.4257 8.91485 25.4257 7.75 25.4257H5.25C4.08515 25.4257 3.50273 25.4257 3.04329 25.2443C2.43073 25.0025 1.94404 24.5385 1.6903 23.9547C1.5 23.5167 1.5 22.9615 1.5 21.8512Z" stroke="#AF62FF" stroke-width="3"/>
<path d="M16.5 18.2766C16.5 16.0299 16.5 14.9065 17.2323 14.2085C17.9645 13.5106 19.143 13.5106 21.5 13.5106C23.857 13.5106 25.0355 13.5106 25.7677 14.2085C26.5 14.9065 26.5 16.0299 26.5 18.2766V20.6596C26.5 22.9064 26.5 24.0297 25.7677 24.7277C25.0355 25.4257 23.857 25.4257 21.5 25.4257C19.143 25.4257 17.9645 25.4257 17.2323 24.7277C16.5 24.0297 16.5 22.9064 16.5 20.6596V18.2766Z" stroke="#AF62FF" stroke-width="3"/>
<path d="M16.5 5.16994C16.5 4.05959 16.5 3.50442 16.6902 3.06648C16.944 2.48258 17.4308 2.01866 18.0433 1.77679C18.5028 1.5954 19.0851 1.5954 20.25 1.5954H22.75C23.9149 1.5954 24.4972 1.5954 24.9567 1.77679C25.5692 2.01866 26.056 2.48258 26.3097 3.06648C26.5 3.50442 26.5 4.05959 26.5 5.16994C26.5 6.28029 26.5 6.83546 26.3097 7.27341C26.056 7.85731 25.5692 8.32122 24.9567 8.56309C24.4972 8.74449 23.9149 8.74449 22.75 8.74449H20.25C19.0851 8.74449 18.5028 8.74449 18.0433 8.56309C17.4308 8.32122 16.944 7.85731 16.6902 7.27341C16.5 6.83546 16.5 6.28029 16.5 5.16994Z" stroke="#AF62FF" stroke-width="3"/>
</svg>
