<svg width="26" height="27" viewBox="0 0 26 27" fill="none" xmlns="http://www.w3.org/2000/svg">
<path d="M11.5 2.75H7.5C5.3998 2.75 4.3497 2.75 3.54754 3.15873C2.84193 3.51825 2.26825 4.09193 1.90873 4.79754C1.5 5.59971 1.5 6.6498 1.5 8.75V15.25C1.5 16.4125 1.5 16.9937 1.62778 17.4706C1.97453 18.7647 2.98533 19.7755 4.27943 20.1222C4.7563 20.25 5.33754 20.25 6.5 20.25V23.1694C6.5 23.8354 6.5 24.1685 6.63654 24.3395C6.75528 24.4883 6.93534 24.5748 7.12568 24.5746C7.34453 24.5744 7.60459 24.3663 8.1247 23.9502L11.1065 21.5648C11.7156 21.0775 12.0202 20.8338 12.3594 20.6606C12.6602 20.5068 12.9805 20.3945 13.3115 20.3266C13.6846 20.25 14.0746 20.25 14.8547 20.25H16.75C18.8502 20.25 19.9003 20.25 20.7025 19.8413C21.4081 19.4818 21.9818 18.9081 22.3413 18.2025C22.75 17.4003 22.75 16.3502 22.75 14.25V14M22.9017 2.59835C24.3661 4.06282 24.3661 6.43718 22.9017 7.90165C21.4372 9.36612 19.0628 9.36612 17.5984 7.90165C16.1339 6.43718 16.1339 4.06282 17.5984 2.59835C19.0628 1.13388 21.4372 1.13388 22.9017 2.59835Z" stroke="#AF62FF" stroke-width="3" stroke-linecap="round" stroke-linejoin="round"/>
</svg>
