<svg width="25" height="25" viewBox="0 0 25 25" fill="none" xmlns="http://www.w3.org/2000/svg">
<path d="M18.0556 8.33333H14.5139V4.16667H10.4861V8.33333H6.94444L12.5 13.8889L18.0556 8.33333ZM22.2222 0H2.76389C1.22222 0 0 1.25 0 2.77778V22.2222C0 23.75 1.22222 25 2.76389 25H22.2222C23.75 25 25 23.75 25 22.2222V2.77778C25 1.25 23.75 0 22.2222 0ZM22.2222 22.2222H2.77778V18.0556H7.72222C8.68056 19.7083 10.4583 20.8333 12.5139 20.8333C14.5694 20.8333 16.3333 19.7083 17.3056 18.0556H22.2222V22.2222ZM22.2222 15.2778H15.2917C15.2917 16.8056 14.0417 18.0556 12.5139 18.0556C10.9861 18.0556 9.73611 16.8056 9.73611 15.2778H2.77778L2.76389 2.77778H12.4931H22.2222V15.2778Z" fill="#AF62FF"/>
</svg>
