<svg width="27" height="26" viewBox="0 0 27 26" fill="none" xmlns="http://www.w3.org/2000/svg">
<path d="M22.75 2.75L8.375 17.125M8.375 8.375L22.75 22.75M19.625 12.75H19.6375M25.25 12.75H25.2625M5.25 1.5C7.32107 1.5 9 3.17893 9 5.25C9 7.32107 7.32107 9 5.25 9C3.17893 9 1.5 7.32107 1.5 5.25C1.5 3.17893 3.17893 1.5 5.25 1.5ZM5.25 16.5C7.32107 16.5 9 18.1789 9 20.25C9 22.3211 7.32107 24 5.25 24C3.17893 24 1.5 22.3211 1.5 20.25C1.5 18.1789 3.17893 16.5 5.25 16.5Z" stroke="#AF62FF" stroke-width="3" stroke-linecap="round" stroke-linejoin="round"/>
</svg>
