<svg width="25" height="24" viewBox="0 0 25 24" fill="none" xmlns="http://www.w3.org/2000/svg">
<path d="M18.0556 7.94343H14.5139V3.97172H10.4861V7.94343H6.94444L12.5 13.2391L18.0556 7.94343ZM22.2222 0H2.76389C1.22222 0 0 1.19151 0 2.64781V21.1825C0 22.6388 1.22222 23.8303 2.76389 23.8303H22.2222C23.75 23.8303 25 22.6388 25 21.1825V2.64781C25 1.19151 23.75 0 22.2222 0ZM22.2222 21.1825H2.77778V17.2108H7.72222C8.68056 18.7862 10.4583 19.8586 12.5139 19.8586C14.5694 19.8586 16.3333 18.7862 17.3056 17.2108H22.2222V21.1825ZM22.2222 14.563H15.2917C15.2917 16.0193 14.0417 17.2108 12.5139 17.2108C10.9861 17.2108 9.73611 16.0193 9.73611 14.563H2.77778L2.76389 2.64781H12.4931H22.2222V14.563Z" fill="black"/>
</svg>
