<svg width="28" height="29" viewBox="0 0 28 29" fill="none" xmlns="http://www.w3.org/2000/svg">
<path d="M1.5 6.5C1.5 4.14298 1.5 2.96446 2.23224 2.23224C2.96446 1.5 4.14297 1.5 6.5 1.5C8.85702 1.5 10.0355 1.5 10.7678 2.23224C11.5 2.96446 11.5 4.14298 11.5 6.5V9C11.5 11.357 11.5 12.5355 10.7678 13.2678C10.0355 14 8.85702 14 6.5 14C4.14297 14 2.96446 14 2.23224 13.2678C1.5 12.5355 1.5 11.357 1.5 9V6.5Z" stroke="black" stroke-width="3"/>
<path d="M1.5 22.8501C1.5 21.6852 1.5 21.1028 1.6903 20.6433C1.94404 20.0308 2.43073 19.5441 3.04329 19.2903C3.50273 19.1001 4.08515 19.1001 5.25 19.1001H7.75C8.91485 19.1001 9.49728 19.1001 9.95671 19.2903C10.5693 19.5441 11.056 20.0308 11.3097 20.6433C11.5 21.1028 11.5 21.6852 11.5 22.8501C11.5 24.015 11.5 24.5973 11.3097 25.0568C11.056 25.6693 10.5693 26.1561 9.95671 26.4098C9.49728 26.6001 8.91485 26.6001 7.75 26.6001H5.25C4.08515 26.6001 3.50273 26.6001 3.04329 26.4098C2.43073 26.1561 1.94404 25.6693 1.6903 25.0568C1.5 24.5973 1.5 24.015 1.5 22.8501Z" stroke="black" stroke-width="3"/>
<path d="M16.5 19.1001C16.5 16.7431 16.5 15.5646 17.2323 14.8323C17.9645 14.1001 19.143 14.1001 21.5 14.1001C23.857 14.1001 25.0355 14.1001 25.7677 14.8323C26.5 15.5646 26.5 16.7431 26.5 19.1001V21.6001C26.5 23.9571 26.5 25.1356 25.7677 25.8678C25.0355 26.6001 23.857 26.6001 21.5 26.6001C19.143 26.6001 17.9645 26.6001 17.2323 25.8678C16.5 25.1356 16.5 23.9571 16.5 21.6001V19.1001Z" stroke="black" stroke-width="3"/>
<path d="M16.5 5.3501C16.5 4.18525 16.5 3.60282 16.6902 3.14339C16.944 2.53082 17.4308 2.04414 18.0433 1.7904C18.5028 1.6001 19.0851 1.6001 20.25 1.6001H22.75C23.9149 1.6001 24.4972 1.6001 24.9567 1.7904C25.5692 2.04414 26.056 2.53082 26.3097 3.14339C26.5 3.60282 26.5 4.18525 26.5 5.3501C26.5 6.51495 26.5 7.09737 26.3097 7.55681C26.056 8.16937 25.5692 8.65606 24.9567 8.9098C24.4972 9.1001 23.9149 9.1001 22.75 9.1001H20.25C19.0851 9.1001 18.5028 9.1001 18.0433 8.9098C17.4308 8.65606 16.944 8.16937 16.6902 7.55681C16.5 7.09737 16.5 6.51495 16.5 5.3501Z" stroke="black" stroke-width="3"/>
</svg>
