<svg width="30" height="29" viewBox="0 0 30 29" fill="none" xmlns="http://www.w3.org/2000/svg">
<path fill-rule="evenodd" clip-rule="evenodd" d="M9.54599 10.3987C9.54599 11.7777 10.1207 13.1002 11.1436 14.0752C12.1665 15.0503 13.5539 15.5981 15.0005 15.5981C16.4472 15.5981 17.8346 15.0503 18.8575 14.0752C19.8804 13.1002 20.4551 11.7777 20.4551 10.3987C20.4551 9.01979 19.8804 7.69732 18.8575 6.72225C17.8346 5.74719 16.4472 5.1994 15.0005 5.1994C13.5539 5.1994 12.1665 5.74719 11.1436 6.72225C10.1207 7.69732 9.54599 9.01979 9.54599 10.3987ZM12.2733 10.3987C12.2733 11.0882 12.5606 11.7494 13.0721 12.237C13.5835 12.7245 14.2772 12.9984 15.0005 12.9984C15.7239 12.9984 16.4175 12.7245 16.929 12.237C17.4405 11.7494 17.7278 11.0882 17.7278 10.3987C17.7278 9.70926 17.4405 9.04803 16.929 8.5605C16.4175 8.07296 15.7239 7.79907 15.0005 7.79907C14.2772 7.79907 13.5835 8.07296 13.0721 8.5605C12.5606 9.04803 12.2733 9.70926 12.2733 10.3987Z" fill="#1E1E1E"/>
<path fill-rule="evenodd" clip-rule="evenodd" d="M15 0C23.2841 0 30 6.40168 30 14.2982C30 22.1947 23.2841 28.5964 15 28.5964C6.71591 28.5964 -2.38419e-07 22.1947 -2.38419e-07 14.2982C-2.38419e-07 6.40168 6.71591 0 15 0ZM27.2727 14.2982C27.2727 17.0148 26.3005 19.5157 24.6709 21.5019C23.5262 20.0696 22.0498 18.9089 20.3569 18.1102C18.6639 17.3116 16.8003 16.8967 14.9114 16.8978C13.0468 16.8958 11.2063 17.2996 9.53028 18.0786C7.85428 18.8575 6.38704 19.9911 5.24045 21.3927C4.05894 19.9155 3.2634 18.1915 2.91969 16.3631C2.57597 14.5347 2.69396 12.6546 3.26387 10.8783C3.83378 9.102 4.83925 7.48061 6.19706 6.14826C7.55488 4.81592 9.22602 3.81093 11.0722 3.21645C12.9184 2.62197 14.8865 2.45509 16.8138 2.72962C18.7411 3.00414 20.5721 3.71219 22.1553 4.79516C23.7385 5.87813 25.0284 7.3049 25.9183 8.95741C26.8082 10.6099 27.2725 12.4407 27.2727 14.2982ZM15 25.9967C17.8174 26.001 20.5498 25.0771 22.7345 23.3814C21.8553 22.1812 20.6847 21.2012 19.3226 20.525C17.9605 19.8487 16.4471 19.4963 14.9114 19.4975C13.3948 19.4962 11.8997 19.84 10.5505 20.5001C9.20122 21.1602 8.03669 22.1177 7.15364 23.293C9.35527 25.0439 12.1328 26.001 15 25.9967Z" fill="#1E1E1E"/>
</svg>
