<svg width="30" height="30" viewBox="0 0 30 30" fill="none" xmlns="http://www.w3.org/2000/svg">
<g opacity="0.12">
<path d="M11.25 7.5C11.25 5.42893 9.57107 3.75 7.5 3.75C5.42893 3.75 3.75 5.42893 3.75 7.5C3.75 9.57107 5.42893 11.25 7.5 11.25C9.57107 11.25 11.25 9.57107 11.25 7.5Z" fill="#AF62FF"/>
<path d="M11.25 22.5C11.25 20.4289 9.57107 18.75 7.5 18.75C5.42893 18.75 3.75 20.4289 3.75 22.5C3.75 24.5711 5.42893 26.25 7.5 26.25C9.57107 26.25 11.25 24.5711 11.25 22.5Z" fill="#AF62FF"/>
</g>
<path d="M25 5L10.625 19.375M10.625 10.625L25 25M21.875 15H21.8875M27.5 15H27.5125M7.5 3.75C9.57107 3.75 11.25 5.42893 11.25 7.5C11.25 9.57107 9.57107 11.25 7.5 11.25C5.42893 11.25 3.75 9.57107 3.75 7.5C3.75 5.42893 5.42893 3.75 7.5 3.75ZM7.5 18.75C9.57107 18.75 11.25 20.4289 11.25 22.5C11.25 24.5711 9.57107 26.25 7.5 26.25C5.42893 26.25 3.75 24.5711 3.75 22.5C3.75 20.4289 5.42893 18.75 7.5 18.75Z" stroke="black" stroke-width="3" stroke-linecap="round" stroke-linejoin="round"/>
</svg>
